<?xml version="1.0" encoding="utf-8"?>
<!-- Generator: Adobe Illustrator 25.2.1, SVG Export Plug-In . SVG Version: 6.00 Build 0)  -->
<svg version="1.1" id="Layer_1" xmlns="http://www.w3.org/2000/svg" xmlns:xlink="http://www.w3.org/1999/xlink" x="0px" y="0px"
	 width="347.9806px" height="188.7804px" viewBox="0 0 347.9806 188.7804" enable-background="new 0 0 347.9806 188.7804"
	 xml:space="preserve">
<g>
	<g>
		<g>
			<path fill="#FFFFFF" d="M0.4263,162.4747c0-1.3701,1.0884-2.4995,2.498-2.4995h0.5253c1.2082,0,1.8912,0.6041,2.577,1.4518
				l14.1013,18.2484v-17.3232c0-1.3293,1.0872-2.4178,2.4165-2.4178c1.3687,0,2.4571,1.0885,2.4571,2.4178v23.688
				c0,1.3701-1.0462,2.4587-2.4163,2.4587h-0.2015c-1.1687,0-1.8939-0.6041-2.5796-1.4912L5.3027,168.2354v17.8865
				c0,1.3293-1.0885,2.4178-2.4179,2.4178c-1.3701,0-2.4585-1.0885-2.4585-2.4178V162.4747z"/>
			<path fill="#FFFFFF" d="M32.2534,185.8403v-23.2065c0-1.4109,1.0872-2.4967,2.4981-2.4967H51.148
				c1.2082,0,2.2165,1.0055,2.2165,2.2151c0,1.2489-1.0083,2.2178-2.2165,2.2178H37.2088v7.3295h12.1256
				c1.2082,0,2.2178,1.0096,2.2178,2.2572c0,1.2082-1.0096,2.1743-2.2178,2.1743H37.2088v7.5758h14.1407
				c1.2082,0,2.2164,1.0068,2.2164,2.215c0,1.2477-1.0082,2.2151-2.2164,2.2151h-16.598
				C33.3405,188.337,32.2534,187.2512,32.2534,185.8403z"/>
			<path fill="#FFFFFF" d="M57.5129,163.3196c-0.1211-0.2816-0.2013-0.6449-0.2013-0.9673c0-1.3701,1.1687-2.4178,2.5375-2.4178
				c1.2082,0,2.1361,0.766,2.4585,1.815l6.486,19.3764l6.3648-19.296c0.4028-1.1688,1.2491-1.9756,2.4981-1.9756h0.362
				c1.2503,0,2.1361,0.8068,2.498,1.9756l6.3663,19.296l6.486-19.4172c0.3618-1.0082,1.2081-1.7742,2.4177-1.7742
				c1.3293,0,2.4559,1.0477,2.4559,2.377c0,0.3224-0.1197,0.7266-0.2408,1.0081l-8.3392,23.3656
				c-0.4436,1.2477-1.3701,2.0545-2.5798,2.0545h-0.4829c-1.2082,0-2.0941-0.7632-2.5375-2.0545l-6.2847-18.4116l-6.2845,18.4116
				c-0.4436,1.2913-1.3687,2.0545-2.5784,2.0545h-0.4844c-1.2081,0-2.0939-0.7632-2.5782-2.0545L57.5129,163.3196z"/>
			<path fill="#FFFFFF" d="M115.6065,162.4747c0-1.3701,1.0884-2.4995,2.4981-2.4995h0.5251c1.0872,0,1.8123,0.5633,2.2954,1.3293
				l8.5405,13.3747l8.5799-13.4155c0.5251-0.8477,1.2517-1.2885,2.2586-1.2885h0.5225c1.4122,0,2.498,1.1294,2.498,2.4995v23.6063
				c0,1.3701-1.0858,2.4587-2.498,2.4587c-1.3281,0-2.4573-1.1294-2.4573-2.4587v-16.919l-6.8901,10.3527
				c-0.5225,0.8042-1.1674,1.2899-2.0941,1.2899c-0.8857,0-1.5306-0.4857-2.0545-1.2899l-6.8478-10.2711v16.8782
				c0,1.3701-1.0885,2.4178-2.4587,2.4178s-2.4177-1.0477-2.4177-2.4178V162.4747z"/>
			<path fill="#FFFFFF" d="M148.9657,185.1151l10.4738-23.3657c0.5633-1.2489,1.5702-2.0149,2.9825-2.0149h0.2421
				c1.4096,0,2.3756,0.766,2.9389,2.0149l10.4766,23.3657c0.1987,0.3618,0.2803,0.7252,0.2803,1.0476
				c0,1.3293-1.0069,2.377-2.3376,2.377c-1.1674,0-1.9729-0.6858-2.4163-1.7335l-2.2968-5.279h-13.6985l-2.3756,5.4397
				c-0.4028,1.0096-1.2491,1.5728-2.2966,1.5728c-1.2899,0-2.2968-1.0069-2.2968-2.2968
				C148.6418,185.8811,148.7616,185.5177,148.9657,185.1151z M167.4153,177.1379l-4.9552-11.4004l-4.9553,11.4004H167.4153z"/>
			<path fill="#FFFFFF" d="M181.718,162.6338c0-1.4109,1.0884-2.4967,2.4953-2.4967h8.6234c6.6071,0,10.7189,3.7458,10.7189,9.4249
				v0.0816c0,6.3254-5.0777,9.6303-11.2848,9.6303h-5.5975v6.807c0,1.3701-1.0884,2.4587-2.4599,2.4587
				c-1.4069,0-2.4953-1.0885-2.4953-2.4587V162.6338z M192.4341,174.8017c3.747,0,6.0846-2.0953,6.0846-5.0355v-0.0816
				c0-3.3035-2.3784-5.0356-6.0846-5.0356h-5.7608v10.1528H192.4341z"/>
			<path fill="#FFFFFF" d="M207.9041,185.1953c-0.5633-0.4028-0.9661-1.0885-0.9661-1.8954c0-1.2857,1.0477-2.2952,2.3348-2.2952
				c0.6886,0,1.1294,0.2027,1.4504,0.4435c2.3376,1.8518,4.8356,2.8995,7.897,2.8995c3.0614,0,4.9961-1.4504,4.9961-3.543v-0.0816
				c0-2.0151-1.1266-3.1022-6.3648-4.3103c-6.003-1.4518-9.3882-3.2247-9.3882-8.4208v-0.0803c0-4.8329,4.0301-8.1771,9.6303-8.1771
				c3.543,0,6.4058,0.9265,8.9419,2.6178c0.5659,0.3224,1.0884,1.0082,1.0884,1.9742c0,1.2885-1.0476,2.2952-2.3348,2.2952
				c-0.4843,0-0.8871-0.1183-1.2897-0.3618c-2.177-1.4109-4.2696-2.1335-6.4874-2.1335c-2.8981,0-4.5934,1.4886-4.5934,3.343v0.079
				c0,2.177,1.2899,3.1429,6.7296,4.4314c5.9621,1.4518,9.0235,3.5853,9.0235,8.2616v0.0776c0,5.2778-4.1498,8.4207-10.0711,8.4207
				C214.6717,188.7396,211.047,187.5328,207.9041,185.1953z"/>
			<path fill="#FFFFFF" d="M246.4989,162.6338c0-1.4109,1.0884-2.4967,2.498-2.4967h8.6208c6.6071,0,10.7188,3.7458,10.7188,9.4249
				v0.0816c0,6.3254-5.0777,9.6303-11.2821,9.6303h-5.6002v6.807c0,1.3701-1.0884,2.4587-2.4573,2.4587
				c-1.4095,0-2.498-1.0885-2.498-2.4587V162.6338z M257.215,174.8017c3.747,0,6.0846-2.0953,6.0846-5.0355v-0.0816
				c0-3.3035-2.3784-5.0356-6.0846-5.0356h-5.7608v10.1528H257.215z"/>
			<path fill="#FFFFFF" d="M273.4115,162.3931c0-1.3701,1.0884-2.4587,2.4953-2.4587c1.3715,0,2.4599,1.0885,2.4599,2.4587v21.4321
				h12.7706c1.2491,0,2.256,1.0082,2.256,2.2558c0,1.2477-1.0069,2.256-2.256,2.256h-15.2305c-1.4069,0-2.4953-1.0858-2.4953-2.4967
				V162.3931z"/>
			<path fill="#FFFFFF" d="M297.1023,176.3719v-13.9788c0-1.3701,1.0858-2.4587,2.4953-2.4587c1.3715,0,2.4573,1.0885,2.4573,2.4587
				v13.7787c0,5.2356,2.6994,8.0166,7.1322,8.0166c4.3893,0,7.0887-2.6178,7.0887-7.8166v-13.9788
				c0-1.3701,1.0884-2.4587,2.5007-2.4587c1.3687,0,2.4573,1.0885,2.4573,2.4587v13.7379c0,8.4208-4.7539,12.6495-12.1284,12.6495
				C301.7745,188.7804,297.1023,184.5518,297.1023,176.3719z"/>
			<path fill="#FFFFFF" d="M327.313,185.1953c-0.5633-0.4028-0.9661-1.0885-0.9661-1.8954c0-1.2857,1.0477-2.2952,2.3375-2.2952
				c0.6858,0,1.1294,0.2027,1.4505,0.4435c2.3375,1.8518,4.8356,2.8995,7.8968,2.8995c3.0614,0,4.9962-1.4504,4.9962-3.543v-0.0816
				c0-2.0151-1.1294-3.1022-6.3676-4.3103c-6.0003-1.4518-9.3855-3.2247-9.3855-8.4208v-0.0803
				c0-4.8329,4.0273-8.1771,9.6277-8.1771c3.5457,0,6.4056,0.9265,8.9445,2.6178c0.5633,0.3224,1.0885,1.0082,1.0885,1.9742
				c0,1.2885-1.0477,2.2952-2.3376,2.2952c-0.4817,0-0.8871-0.1183-1.2899-0.3618c-2.1742-1.4109-4.2695-2.1335-6.4846-2.1335
				c-2.9008,0-4.5933,1.4886-4.5933,3.343v0.079c0,2.177,1.2897,3.1429,6.7294,4.4314c5.9622,1.4518,9.0209,3.5853,9.0209,8.2616
				v0.0776c0,5.2778-4.1472,8.4207-10.0713,8.4207C334.0833,188.7396,330.4587,187.5328,327.313,185.1953z"/>
		</g>
		<g>
			<path fill="#FFFFFF" d="M75.8062,131.5319c0.2095,0.0816,0.468,0.1197,0.7388,0.0897c0.7986-0.0571,1.5224-0.5524,1.6911-1.1455
				c0.1361-0.4599-0.0925-0.8953-0.57-1.0723c-0.215-0.0871-0.4613-0.1197-0.7416-0.0925c-0.7809,0.0762-1.5184,0.585-1.6871,1.1674
				C75.1136,130.925,75.3272,131.3469,75.8062,131.5319z"/>
			<path fill="#FFFFFF" d="M72.1407,131.6544c0.1769,0.0789,0.415,0.1088,0.6803,0.0843c0.7075-0.0489,1.396-0.498,1.5334-0.9905
				c0.0939-0.3538-0.0722-0.6803-0.4531-0.83c-0.1891-0.0762-0.4231-0.0979-0.6721-0.079
				c-0.7184,0.0653-1.3973,0.5035-1.5429,1.0069C71.5856,131.1917,71.7598,131.5101,72.1407,131.6544z"/>
			<path fill="#FFFFFF" d="M68.4426,131.8095c0.1742,0.0734,0.3891,0.0979,0.6355,0.0871c0.6653-0.0571,1.2953-0.4382,1.4164-0.8736
				c0.0789-0.2775-0.0708-0.5251-0.3728-0.6449c-0.1728-0.068-0.3864-0.0925-0.6232-0.0706
				c-0.6585,0.0598-1.2911,0.4571-1.4096,0.8817C68.0018,131.4638,68.1351,131.6924,68.4426,131.8095z"/>
			<path fill="#FFFFFF" d="M65.3323,132.1278c0.6449-0.049,1.2559-0.4082,1.3661-0.8054c0.1279-0.4137-0.3129-0.6994-0.9524-0.6504
				c-0.6532,0.0599-1.2654,0.438-1.3769,0.8326C64.2574,131.902,64.6819,132.1741,65.3323,132.1278z"/>
			<path fill="#FFFFFF" d="M61.577,132.3782c0.6422-0.0245,1.2571-0.3728,1.3647-0.7565c0.1129-0.4026-0.3252-0.6858-0.9824-0.6639
				c-0.6544,0.0217-1.268,0.3701-1.3728,0.7673C60.4831,132.1224,60.9212,132.4054,61.577,132.3782z"/>
			<path fill="#FFFFFF" d="M57.7864,132.5306c0.6667-0.03,1.2694-0.3565,1.3661-0.7538c0.0925-0.3974-0.3537-0.7157-1.0151-0.6885
				c-0.6516,0.0191-1.264,0.37-1.351,0.7756C56.6979,132.2639,57.1469,132.5578,57.7864,132.5306z"/>
			<path fill="#FFFFFF" d="M80.2255,128.5848c0.2122,0.0844,0.4652,0.1144,0.7333,0.0844c0.7933-0.0899,1.5199-0.6204,1.6722-1.249
				c0.1293-0.4708-0.106-0.917-0.5633-1.1021c-0.2136-0.0871-0.4734-0.1034-0.7347-0.0762
				c-0.7851,0.0979-1.5157,0.6395-1.6872,1.2517C79.5343,127.9617,79.7573,128.3971,80.2255,128.5848z"/>
			<path fill="#FFFFFF" d="M78.9656,127.8365c0.1143-0.4653-0.1007-0.9034-0.5715-1.0912
				c-0.2204-0.0789-0.4653-0.1143-0.7483-0.0789c-0.7769,0.0871-1.5294,0.6231-1.6899,1.2326
				c-0.1197,0.4545,0.1034,0.8844,0.5661,1.064c0.2162,0.0925,0.4789,0.117,0.751,0.0899
				C78.0729,128.9739,78.8103,128.4488,78.9656,127.8365z"/>
			<path fill="#FFFFFF" d="M75.077,128.1793c0.106-0.3674-0.0599-0.7101-0.4573-0.8517c-0.1877-0.0816-0.4149-0.0979-0.6748-0.0734
				c-0.7266,0.0761-1.3932,0.5442-1.5348,1.0639c-0.1062,0.3674,0.072,0.6966,0.4517,0.849
				c0.185,0.0762,0.4163,0.1007,0.6695,0.0762C74.2551,129.1726,74.9314,128.71,75.077,128.1793z"/>
			<path fill="#FFFFFF" d="M71.2047,128.5222c0.0815-0.2912-0.0639-0.5524-0.3728-0.6775c-0.1905-0.068-0.396-0.0953-0.6204-0.068
				c-0.6722,0.068-1.3144,0.4871-1.4463,0.9551c-0.0748,0.2912,0.0666,0.5416,0.3863,0.6612
				c0.1673,0.068,0.3905,0.0979,0.6137,0.079C70.4522,129.4067,71.0795,128.9821,71.2047,128.5222z"/>
			<path fill="#FFFFFF" d="M67.391,128.8814c0.1156-0.4408-0.3239-0.7483-0.9783-0.683c-0.6476,0.0599-1.2736,0.4708-1.3892,0.9007
				c-0.1102,0.4326,0.3197,0.7292,0.9701,0.6693C66.6439,129.7087,67.2671,129.3196,67.391,128.8814z"/>
			<path fill="#FFFFFF" d="M63.5881,129.2325c0.106-0.4299-0.3362-0.7374-0.9878-0.7294c-0.6695,0.0191-1.3007,0.4001-1.4096,0.8245
				c-0.1035,0.4382,0.3496,0.7565,1.0082,0.7402C62.8573,130.0462,63.4819,129.657,63.5881,129.2325z"/>
			<path fill="#FFFFFF" d="M59.7307,129.3685c0.113-0.4245-0.3443-0.7701-1.0218-0.7618c-0.6721,0.0163-1.2899,0.4-1.3742,0.8326
				c-0.0993,0.4354,0.3564,0.7565,1.0164,0.7402C59.0218,130.1604,59.6233,129.8039,59.7307,129.3685z"/>
			<path fill="#FFFFFF" d="M54.4992,130.2937c0.6708-0.0217,1.279-0.3809,1.3715-0.8191c0.0803-0.438-0.3863-0.7891-1.049-0.7809
				c-0.6735,0.0163-1.2804,0.3918-1.3756,0.8354C53.3658,129.9672,53.8353,130.3074,54.4992,130.2937z"/>
			<path fill="#FFFFFF" d="M50.6486,130.389c0.6614-0.0191,1.2491-0.3837,1.3416-0.83c0.0708-0.4464-0.3918-0.8056-1.0693-0.7947
				c-0.6831,0.0137-1.2764,0.3919-1.3524,0.849C49.4977,130.0625,49.9793,130.4026,50.6486,130.389z"/>
			<path fill="#FFFFFF" d="M79.688,125.0908c0.1319-0.4843-0.0993-0.9251-0.5647-1.1129c-0.2108-0.0816-0.4706-0.1088-0.7441-0.0734
				c-0.7797,0.0925-1.5212,0.6585-1.6885,1.2762c-0.1253,0.4789,0.0952,0.9116,0.5687,1.1047
				c0.2136,0.0762,0.4706,0.1007,0.7483,0.0708C78.7914,126.2691,79.5152,125.7221,79.688,125.0908z"/>
			<path fill="#FFFFFF" d="M75.798,125.4853c0.1144-0.3891-0.0652-0.7347-0.4408-0.8925c-0.1959-0.0734-0.4326-0.0925-0.6803-0.0626
				c-0.7198,0.0816-1.4068,0.5768-1.5429,1.1266c-0.1088,0.3837,0.0748,0.7266,0.4681,0.8762
				c0.17,0.0708,0.404,0.1062,0.6571,0.0762C74.9885,126.5249,75.6647,126.0297,75.798,125.4853z"/>
			<path fill="#FFFFFF" d="M71.9231,125.869c0.083-0.3184-0.0626-0.5959-0.3877-0.7211c-0.1729-0.0706-0.3824-0.0897-0.6055-0.0706
				c-0.6721,0.0761-1.3279,0.5333-1.4558,1.0204c-0.0736,0.3156,0.0694,0.5822,0.3958,0.7075
				c0.1647,0.0708,0.3783,0.0871,0.6083,0.068C71.1571,126.8024,71.7978,126.3643,71.9231,125.869z"/>
			<path fill="#FFFFFF" d="M68.0766,126.2636c0.1279-0.4708-0.3047-0.8-0.9701-0.7347c-0.6612,0.0734-1.298,0.5088-1.4096,0.9687
				c-0.1088,0.4626,0.3184,0.7863,0.9824,0.7184C67.327,127.1507,67.9597,126.729,68.0766,126.2636z"/>
			<path fill="#FFFFFF" d="M64.2451,126.6419c0.1212-0.4599-0.3278-0.8-0.9945-0.7919c-0.6831,0.0191-1.3253,0.4164-1.43,0.8844
				c-0.1102,0.4708,0.3469,0.8219,1.0218,0.8082C63.5036,127.5209,64.1363,127.1072,64.2451,126.6419z"/>
			<path fill="#FFFFFF" d="M60.3403,126.7589c0.102-0.4653-0.3578-0.8436-1.0409-0.83c-0.6639,0.0054-1.3048,0.4054-1.3987,0.8708
				c-0.1074,0.4762,0.3674,0.83,1.0381,0.8217C59.5974,127.6052,60.2301,127.2323,60.3403,126.7589z"/>
			<path fill="#FFFFFF" d="M56.404,126.8297c0.1007-0.479-0.3837-0.8653-1.064-0.8573c-0.6775,0.0082-1.2939,0.4056-1.3878,0.8844
				c-0.0871,0.4762,0.3811,0.8545,1.0626,0.8382C55.6829,127.6814,56.3115,127.3005,56.404,126.8297z"/>
			<path fill="#FFFFFF" d="M43.2239,127.8256c0.6749-0.0054,1.2667-0.3972,1.3293-0.8979c0.0667-0.4979-0.4394-0.9116-1.1184-0.9116
				c-0.683,0-1.2708,0.4109-1.3416,0.917C42.0361,127.4338,42.5449,127.8256,43.2239,127.8256z"/>
			<path fill="#FFFFFF" d="M79.8595,121.1069c-0.2082-0.0871-0.4694-0.1088-0.7416-0.0761
				c-0.7755,0.0952-1.5212,0.6802-1.6817,1.3197c-0.1333,0.4979,0.0925,0.9361,0.5701,1.132
				c0.2068,0.079,0.4694,0.109,0.7469,0.0681c0.7783-0.0953,1.5157-0.6722,1.6762-1.309
				C80.5547,121.7464,80.3234,121.2947,79.8595,121.1069z"/>
			<path fill="#FFFFFF" d="M74.3259,123.7657c0.2013,0.0706,0.4217,0.0952,0.6721,0.0652c0.7184-0.0843,1.4096-0.6013,1.5483-1.1728
				c0.0993-0.3946-0.0843-0.7618-0.4694-0.9225c-0.1945-0.0708-0.4123-0.0979-0.6544-0.0598
				c-0.7266,0.0843-1.4178,0.604-1.562,1.1727C73.7652,123.2486,73.945,123.6078,74.3259,123.7657z"/>
			<path fill="#FFFFFF" d="M70.591,124.0595c0.1769,0.0653,0.3823,0.0925,0.6137,0.0626c0.6707-0.0734,1.317-0.5442,1.4504-1.0558
				c0.0883-0.3374-0.0708-0.6313-0.4028-0.7646c-0.1742-0.0627-0.3851-0.0871-0.6068-0.0653
				c-0.6763,0.0843-1.3335,0.5605-1.4614,1.0695C70.1053,123.6404,70.2672,123.9179,70.591,124.0595z"/>
			<path fill="#FFFFFF" d="M66.3827,123.7166c-0.1183,0.4925,0.3103,0.8436,0.9783,0.7701c0.6707-0.068,1.3034-0.5143,1.4258-1.015
				c0.1211-0.4979-0.3197-0.8463-0.9824-0.7783C67.1418,122.756,66.5051,123.2213,66.3827,123.7166z"/>
			<path fill="#FFFFFF" d="M64.9186,123.8662c0.1076-0.4953-0.3361-0.8599-1.0164-0.8517
				c-0.6844,0.0054-1.3211,0.4272-1.4436,0.9225c-0.1088,0.4979,0.3565,0.8871,1.0272,0.8762
				C64.1581,124.7969,64.8084,124.3588,64.9186,123.8662z"/>
			<path fill="#FFFFFF" d="M60.9607,123.9561c0.1102-0.5035-0.3578-0.909-1.0409-0.9062c-0.6938-0.0028-1.3374,0.4191-1.4341,0.9279
				c-0.1115,0.5007,0.362,0.9034,1.0409,0.8844C60.2083,124.8595,60.8519,124.4541,60.9607,123.9561z"/>
			<path fill="#FFFFFF" d="M43.7968,122.9601c-0.6872-0.0081-1.309,0.4245-1.3579,0.9606c-0.0844,0.536,0.4366,0.9687,1.132,0.9714
				c0.6721,0.011,1.2939-0.4163,1.3442-0.9442C44.9954,123.4146,44.488,122.9737,43.7968,122.9601z"/>
			<path fill="#FFFFFF" d="M39.7775,122.8949c-0.6858-0.0191-1.2925,0.4272-1.3374,0.9605
				c-0.0667,0.5496,0.4612,0.9905,1.1306,1.0041c0.6912,0.0054,1.2911-0.4217,1.3496-0.9605
				C40.9721,123.3629,40.4687,122.9057,39.7775,122.8949z"/>
			<path fill="#FFFFFF" d="M81.1697,119.2973c0.1306-0.5088-0.1116-0.9769-0.5796-1.1646c-0.215-0.0816-0.4599-0.1088-0.7266-0.0708
				c-0.7877,0.0979-1.5266,0.6912-1.679,1.3552c-0.1279,0.506,0.0925,0.9605,0.5729,1.151c0.219,0.079,0.4694,0.1062,0.7387,0.0736
				C80.2758,120.541,81.0118,119.9423,81.1697,119.2973z"/>
			<path fill="#FFFFFF" d="M77.3002,119.7247c0.102-0.4219-0.0899-0.7947-0.4981-0.9552c-0.1768-0.0734-0.3918-0.1007-0.6285-0.0789
				c-0.7443,0.0952-1.4274,0.6231-1.5702,1.2191c-0.1088,0.4163,0.0899,0.7891,0.483,0.947c0.1932,0.0734,0.4149,0.0979,0.653,0.068
				C76.4757,120.843,77.1423,120.3178,77.3002,119.7247z"/>
			<path fill="#FFFFFF" d="M73.3925,120.1301c0.0762-0.3592-0.0762-0.6749-0.4327-0.8054c-0.1551-0.0708-0.37-0.0871-0.585-0.0681
				c-0.6721,0.0762-1.3307,0.5715-1.46,1.1103c-0.0803,0.3483,0.075,0.6612,0.4233,0.8054
				c0.1687,0.0545,0.3741,0.0816,0.5985,0.0517C72.606,121.1533,73.2605,120.658,73.3925,120.1301z"/>
			<path fill="#FFFFFF" d="M69.5012,120.5273c0.1142-0.5225-0.3157-0.8979-0.9878-0.8354c-0.6749,0.0653-1.317,0.5442-1.4313,1.0723
				c-0.1279,0.5305,0.321,0.8897,0.9822,0.8163C68.7378,121.5151,69.3733,121.0471,69.5012,120.5273z"/>
			<path fill="#FFFFFF" d="M63.1213,120.9573c-0.1142,0.5388,0.3401,0.9524,1.03,0.9416c0.687,0.0028,1.3211-0.4734,1.4462-0.9932
				c0.1212-0.5279-0.3415-0.9116-1.0272-0.9116C63.8791,119.9968,63.2221,120.4348,63.1213,120.9573z"/>
			<path fill="#FFFFFF" d="M59.0844,120.9655c-0.1006,0.5333,0.3756,0.9579,1.0614,0.9551c0.6911,0.0028,1.336-0.4245,1.4476-0.9551
				c0.1184-0.5307-0.3551-0.9715-1.0572-0.9715C59.8369,119.994,59.1988,120.4294,59.0844,120.9655z"/>
			<path fill="#FFFFFF" d="M57.5551,120.9573c0.1116-0.5388-0.3811-0.9824-1.0817-0.9905
				c-0.6993-0.0082-1.3551,0.4354-1.4463,0.9742c-0.0952,0.5388,0.3891,0.9824,1.0885,0.977
				C56.7986,121.9206,57.4598,121.4934,57.5551,120.9573z"/>
			<path fill="#FFFFFF" d="M53.4842,120.9247c0.0925-0.5416-0.3946-1.0015-1.0966-1.0123
				c-0.7075-0.0109-1.3524,0.4382-1.4381,0.9824c-0.0803,0.5496,0.4149,0.9905,1.1157,0.9959
				C52.7536,121.9043,53.3863,121.4743,53.4842,120.9247z"/>
			<path fill="#FFFFFF" d="M47.9942,121.8444c0.7021,0.011,1.3307-0.4272,1.4109-0.9742c0.0925-0.5579-0.4177-1.0204-1.1117-1.0395
				c-0.7047-0.0109-1.3442,0.4354-1.4178,0.9906C46.7983,121.3818,47.2948,121.8389,47.9942,121.8444z"/>
			<path fill="#FFFFFF" d="M44.1982,119.7327c-0.7117-0.0163-1.3321,0.4273-1.3946,0.996c-0.0626,0.5605,0.4408,1.0285,1.132,1.0449
				c0.6993,0.0109,1.3279-0.4273,1.3892-0.9824C45.4064,120.228,44.9015,119.7518,44.1982,119.7327z"/>
			<path fill="#FFFFFF" d="M40.1232,119.6076c-0.7021-0.0245-1.3116,0.43-1.3729,1.0068c-0.0599,0.5742,0.4585,1.0449,1.1525,1.0668
				c0.6884,0.019,1.3034-0.4245,1.3714-0.9906C41.3354,120.1138,40.8102,119.6266,40.1232,119.6076z"/>
			<path fill="#FFFFFF" d="M81.9166,116.255c0.1225-0.5143-0.1048-0.9959-0.5864-1.1864c-0.215-0.079-0.4543-0.1035-0.7021-0.079
				c-0.7891,0.1034-1.5306,0.7103-1.7062,1.396c-0.1237,0.5143,0.1143,0.9796,0.6015,1.1755
				c0.2122,0.079,0.4571,0.1034,0.7264,0.0736C81.02,117.5286,81.7521,116.9382,81.9166,116.255z"/>
			<path fill="#FFFFFF" d="M78.0566,116.6769c0.0979-0.4436-0.0979-0.8354-0.5143-0.996c-0.1782-0.0708-0.3891-0.0952-0.6232-0.0708
				c-0.7266,0.079-1.4218,0.6314-1.5606,1.241c-0.113,0.438,0.083,0.8272,0.5048,0.9822c0.1715,0.079,0.3974,0.1089,0.6272,0.079
				C77.2131,117.8279,77.9056,117.2837,78.0566,116.6769z"/>
			<path fill="#FFFFFF" d="M74.1409,117.055c0.0843-0.3755-0.0871-0.7021-0.4627-0.8408c-0.1551-0.068-0.355-0.0952-0.5577-0.0708
				c-0.6872,0.0708-1.3457,0.577-1.4749,1.1402c-0.083,0.37,0.0803,0.6994,0.4394,0.8463c0.1687,0.0681,0.37,0.0762,0.581,0.0627
				C73.3489,118.1191,73.9912,117.6103,74.1409,117.055z"/>
			<path fill="#FFFFFF" d="M70.2195,117.4333c0.1198-0.5469-0.3156-0.9524-0.9919-0.8897
				c-0.6735,0.0598-1.3239,0.5577-1.4518,1.1075c-0.1088,0.5496,0.332,0.9388,1.0015,0.8762
				C69.4576,118.462,70.0916,117.9803,70.2195,117.4333z"/>
			<path fill="#FFFFFF" d="M66.2847,117.7816c0.1251-0.5524-0.3292-0.9768-1.0258-0.9742
				c-0.6966-0.0026-1.3647,0.4545-1.4735,1.0096c-0.1184,0.5524,0.3469,1.0015,1.0435,1.0015
				C65.531,118.8131,66.1705,118.326,66.2847,117.7816z"/>
			<path fill="#FFFFFF" d="M62.2533,117.8035c0.1102-0.5498-0.3716-1.0232-1.0763-1.0341
				c-0.7035-0.0054-1.3633,0.4489-1.4831,1.0122c-0.1006,0.5687,0.3769,1.0206,1.0735,1.0206
				C61.4805,118.8131,62.1321,118.364,62.2533,117.8035z"/>
			<path fill="#FFFFFF" d="M56.6844,118.7614c0.7184,0.0109,1.3605-0.43,1.4721-0.9987c0.0953-0.5579-0.3783-1.0395-1.1021-1.0504
				c-0.7129-0.0136-1.3579,0.4435-1.4667,1.0096C55.4844,118.296,55.9837,118.7531,56.6844,118.7614z"/>
			<path fill="#FFFFFF" d="M52.5903,118.6932c0.7007,0.0163,1.3402-0.4326,1.4327-0.9959c0.1076-0.5796-0.3972-1.0558-1.1075-1.0803
				c-0.7075-0.0137-1.3606,0.43-1.4518,1.015C51.3807,118.2089,51.8787,118.6824,52.5903,118.6932z"/>
			<path fill="#FFFFFF" d="M49.8963,117.5912c0.0885-0.5769-0.4123-1.0775-1.117-1.1049c-0.7211-0.0217-1.362,0.4408-1.4532,1.0286
				c-0.079,0.5796,0.4354,1.0667,1.1388,1.0858C49.1751,118.6225,49.816,118.1708,49.8963,117.5912z"/>
			<path fill="#FFFFFF" d="M44.6281,116.3421c-0.7076-0.03-1.3538,0.4354-1.4164,1.026c-0.0844,0.5959,0.4354,1.0884,1.1401,1.1129
				c0.7103,0.0191,1.3416-0.4273,1.4204-1.0232C45.8581,116.8728,45.3397,116.3749,44.6281,116.3421z"/>
			<path fill="#FFFFFF" d="M40.5069,116.1625c-0.7048-0.0354-1.3389,0.4354-1.4029,1.0341
				c-0.0666,0.6096,0.4531,1.1103,1.1606,1.1375c0.694,0.0191,1.3198-0.4326,1.3906-1.0232
				C41.7341,116.7095,41.2062,116.1898,40.5069,116.1625z"/>
			<path fill="#FFFFFF" d="M36.4086,115.9584c-0.6966-0.0408-1.317,0.4354-1.3687,1.0532c-0.0543,0.6122,0.4585,1.1266,1.1511,1.162
				c0.7021,0.03,1.3076-0.4354,1.3742-1.0449C37.6291,116.5271,37.1108,115.9884,36.4086,115.9584z"/>
			<path fill="#FFFFFF" d="M82.6691,113.1447c0.1251-0.5388-0.1198-1.0286-0.6015-1.2245
				c-0.2095-0.0762-0.4449-0.1007-0.6884-0.0708c-0.7865,0.0899-1.5294,0.7021-1.6939,1.3987
				c-0.1184,0.5279,0.1129,1.015,0.6054,1.2137c0.2015,0.0816,0.449,0.117,0.7076,0.0762
				C81.771,114.4483,82.503,113.8251,82.6691,113.1447z"/>
			<path fill="#FFFFFF" d="M78.8077,113.5257c0.1142-0.4571-0.0871-0.8626-0.5225-1.0285c-0.1824-0.0736-0.3837-0.0981-0.5987-0.079
				c-0.7429,0.079-1.4355,0.6313-1.5811,1.2654c-0.106,0.4517,0.0913,0.8599,0.5158,1.0286
				c0.1782,0.0734,0.4013,0.1007,0.6204,0.0762C77.9723,114.7095,78.6526,114.1543,78.8077,113.5257z"/>
			<path fill="#FFFFFF" d="M72.3884,114.0646c-0.0979,0.4109,0.0789,0.7564,0.4557,0.8979
				c0.1701,0.0653,0.3606,0.0897,0.5592,0.0734c0.6858-0.0734,1.3428-0.585,1.4695-1.162c0.106-0.4026-0.0776-0.7455-0.4585-0.8979
				c-0.1538-0.0626-0.3416-0.0843-0.551-0.0653C73.1884,112.9651,72.5109,113.4876,72.3884,114.0646z"/>
			<path fill="#FFFFFF" d="M70.9516,114.2005c0.1253-0.5659-0.3292-0.9905-1.0109-0.9361
				c-0.6735,0.0436-1.3211,0.5498-1.4504,1.1239c-0.1265,0.5824,0.328,0.9905,1.0027,0.9416
				C70.1815,115.2754,70.8345,114.7666,70.9516,114.2005z"/>
			<path fill="#FFFFFF" d="M64.4534,114.5163c-0.117,0.5796,0.351,1.0558,1.0558,1.0585c0.7061-0.0026,1.351-0.5006,1.4775-1.0802
				c0.1142-0.5715-0.3429-1.0151-1.0476-1.0178C65.2412,113.4659,64.5663,113.9367,64.4534,114.5163z"/>
			<path fill="#FFFFFF" d="M62.905,114.4945c0.1156-0.5878-0.3578-1.0668-1.0775-1.0885c-0.7075-0.0136-1.3878,0.4571-1.4966,1.0449
				c-0.1007,0.585,0.3837,1.0695,1.0858,1.0775C62.1321,115.5421,62.7839,115.0822,62.905,114.4945z"/>
			<path fill="#FFFFFF" d="M58.7674,114.4101c0.1088-0.5824-0.3905-1.083-1.1035-1.0994c-0.7238-0.0217-1.3864,0.4436-1.4775,1.0369
				c-0.1144,0.5987,0.3918,1.0884,1.0993,1.0993C58.0041,115.4687,58.6667,115.0033,58.7674,114.4101z"/>
			<path fill="#FFFFFF" d="M54.6026,114.3013c0.0967-0.5933-0.4109-1.0966-1.121-1.132c-0.7239-0.0272-1.3797,0.4435-1.4859,1.0504
				c-0.0843,0.5987,0.4164,1.0994,1.128,1.1238C53.8407,115.3653,54.502,114.8972,54.6026,114.3013z"/>
			<path fill="#FFFFFF" d="M48.9589,115.1966c0.7156,0.0298,1.3687-0.4273,1.4612-1.0395c0.0993-0.6096-0.4163-1.1212-1.1415-1.162
				c-0.7199-0.0245-1.3811,0.4435-1.46,1.0584C47.7262,114.6605,48.2513,115.1666,48.9589,115.1966z"/>
			<path fill="#FFFFFF" d="M45.0947,112.7992c-0.7211-0.0436-1.3687,0.43-1.4518,1.053c-0.072,0.6232,0.445,1.1375,1.1551,1.1728
				c0.7157,0.0272,1.3593-0.4354,1.4369-1.0422C46.322,113.3625,45.805,112.8318,45.0947,112.7992z"/>
			<path fill="#FFFFFF" d="M40.915,112.5651c-0.7101-0.0408-1.3388,0.4354-1.4204,1.064c-0.0613,0.6259,0.4517,1.1618,1.1606,1.1972
				c0.7089,0.0382,1.3402-0.4326,1.4136-1.0585C42.1545,113.1502,41.6333,112.606,40.915,112.5651z"/>
			<path fill="#FFFFFF" d="M36.7869,112.3093c-0.7075-0.0599-1.3374,0.4354-1.3919,1.0695
				c-0.0734,0.6395,0.4531,1.1864,1.1525,1.2245c0.6993,0.0408,1.3293-0.4408,1.3933-1.0667
				C38.0114,112.908,37.4917,112.3474,36.7869,112.3093z"/>
			<path fill="#FFFFFF" d="M32.4874,114.353c0.6938,0.0517,1.3088-0.4382,1.3551-1.0749c0.0653-0.6422-0.4449-1.2082-1.1375-1.2571
				c-0.6884-0.0573-1.3156,0.438-1.3701,1.083C31.2901,113.7543,31.8003,114.3121,32.4874,114.353z"/>
			<path fill="#FFFFFF" d="M79.5697,110.2875c0.106-0.4789-0.1116-0.898-0.5416-1.0749c-0.1796-0.068-0.3755-0.0952-0.585-0.0789
				c-0.7239,0.0653-1.4314,0.6395-1.5742,1.2817c-0.1048,0.479,0.0939,0.8981,0.5374,1.0695
				c0.1769,0.068,0.3728,0.1034,0.6015,0.0789C78.7315,111.4957,79.4145,110.9324,79.5697,110.2875z"/>
			<path fill="#FFFFFF" d="M74.1503,111.7569c0.6844-0.0517,1.3538-0.5769,1.4898-1.1783c0.0899-0.4137-0.1034-0.7809-0.4925-0.9416
				c-0.1659-0.0571-0.3401-0.0843-0.536-0.0708c-0.6858,0.0463-1.3498,0.5687-1.494,1.1783
				c-0.0816,0.411,0.1034,0.7837,0.5062,0.9361C73.7817,111.7433,73.9571,111.7706,74.1503,111.7569z"/>
			<path fill="#FFFFFF" d="M69.2128,111.0004c-0.1333,0.5933,0.3238,1.0423,1.0136,0.9987c0.6681-0.0463,1.3267-0.5551,1.46-1.1538
				c0.1223-0.5878-0.3211-1.0341-1.0137-0.9959C69.9911,109.882,69.3352,110.4018,69.2128,111.0004z"/>
			<path fill="#FFFFFF" d="M65.135,111.0766c-0.1142,0.6041,0.3551,1.0966,1.0626,1.1076c0.7048,0.0109,1.3593-0.4981,1.4885-1.1049
				c0.1225-0.5987-0.3457-1.0721-1.0477-1.0803C65.9282,109.98,65.2561,110.467,65.135,111.0766z"/>
			<path fill="#FFFFFF" d="M60.9784,110.9732c-0.1062,0.6096,0.3837,1.1184,1.0898,1.1294c0.7198,0.0217,1.3892-0.4518,1.498-1.0614
				c0.1225-0.6096-0.3592-1.121-1.0858-1.1429C61.7675,109.882,61.0926,110.3691,60.9784,110.9732z"/>
			<path fill="#FFFFFF" d="M56.7769,110.8344c-0.1007,0.6204,0.3863,1.1402,1.1198,1.1592c0.7143,0.03,1.3946-0.4489,1.5007-1.0667
				c0.109-0.6122-0.3823-1.1375-1.1061-1.1674C57.5606,109.7324,56.8925,110.214,56.7769,110.8344z"/>
			<path fill="#FFFFFF" d="M55.1904,110.7719c0.0979-0.615-0.4054-1.1565-1.1292-1.1811c-0.732-0.0435-1.4015,0.4436-1.5049,1.0667
				c-0.1062,0.6286,0.4163,1.1565,1.132,1.1865C54.4095,111.8685,55.0788,111.3923,55.1904,110.7719z"/>
			<path fill="#FFFFFF" d="M50.9644,110.5786c0.1021-0.6258-0.4314-1.1674-1.1524-1.2054
				c-0.7185-0.0517-1.3866,0.4354-1.4763,1.0695c-0.0899,0.6394,0.4191,1.1727,1.1443,1.2135
				C50.2106,111.6861,50.861,111.2181,50.9644,110.5786z"/>
			<path fill="#FFFFFF" d="M46.7357,110.3556c0.0761-0.6341-0.4382-1.1947-1.1634-1.2382c-0.7225-0.0463-1.381,0.4354-1.4654,1.0803
				c-0.0694,0.6285,0.4408,1.1891,1.1593,1.2326C45.9969,111.474,46.6513,110.9895,46.7357,110.3556z"/>
			<path fill="#FFFFFF" d="M41.364,108.8262c-0.7171-0.049-1.3687,0.4408-1.4369,1.094c-0.0843,0.653,0.449,1.2109,1.1593,1.2543
				c0.7198,0.0436,1.3659-0.4326,1.4381-1.083C42.6131,109.4412,42.0974,108.8779,41.364,108.8262z"/>
			<path fill="#FFFFFF" d="M79.7682,105.8465c-0.1714-0.0598-0.3618-0.0925-0.5551-0.0762
				c-0.7457,0.0517-1.4423,0.6096-1.5933,1.2899c-0.102,0.4925,0.1021,0.9333,0.5701,1.1103
				c0.1579,0.0734,0.3646,0.0897,0.5742,0.068c0.7185-0.0435,1.4164-0.6122,1.5634-1.2734
				C80.4471,106.4697,80.209,106.0343,79.7682,105.8465z"/>
			<path fill="#FFFFFF" d="M73.8551,107.3133c-0.0871,0.4354,0.1279,0.819,0.5307,0.9931c0.1605,0.0545,0.3306,0.0816,0.5115,0.0708
				c0.6791-0.0463,1.3538-0.5714,1.494-1.1864c0.0899-0.4382-0.1142-0.8327-0.5197-0.9906
				c-0.1579-0.0598-0.3129-0.0897-0.4981-0.0843C74.6782,106.1594,73.9967,106.6846,73.8551,107.3133z"/>
			<path fill="#FFFFFF" d="M69.9243,107.4901c-0.1239,0.615,0.3361,1.0858,1.0218,1.0532c0.6803-0.0327,1.3444-0.5524,1.4667-1.1511
				c0.1279-0.6204-0.3142-1.094-1.0122-1.0721C70.7121,106.35,70.0454,106.8642,69.9243,107.4901z"/>
			<path fill="#FFFFFF" d="M65.8248,107.5037c-0.117,0.6231,0.362,1.1401,1.0722,1.1537c0.6993,0.0191,1.385-0.5007,1.487-1.1266
				c0.1212-0.6178-0.3496-1.1129-1.0516-1.1375C66.6167,106.3826,65.931,106.8725,65.8248,107.5037z"/>
			<path fill="#FFFFFF" d="M61.6273,107.3813c-0.1156,0.6176,0.3905,1.1483,1.1062,1.1701c0.7156,0.03,1.3878-0.4626,1.5157-1.0938
				c0.1088-0.6286-0.3851-1.1565-1.098-1.1919C62.4315,106.2493,61.7458,106.7335,61.6273,107.3813z"/>
			<path fill="#FFFFFF" d="M57.3987,107.1962c-0.1048,0.6367,0.3904,1.1755,1.1198,1.2054c0.732,0.03,1.4096-0.4599,1.5184-1.0884
				c0.1144-0.6395-0.3932-1.1783-1.1212-1.2165C58.1838,106.0614,57.498,106.5513,57.3987,107.1962z"/>
			<path fill="#FFFFFF" d="M55.7782,107.1146c0.1142-0.6369-0.3974-1.1974-1.132-1.2382c-0.7292-0.0408-1.4123,0.449-1.5129,1.1048
				c-0.1007,0.6395,0.4135,1.1946,1.1469,1.23C55.004,108.2466,55.6775,107.7595,55.7782,107.1146z"/>
			<path fill="#FFFFFF" d="M51.5194,106.8751c0.1035-0.6476-0.4135-1.2137-1.1538-1.2626
				c-0.7429-0.0463-1.4096,0.4489-1.4912,1.0993c-0.1048,0.6558,0.4096,1.2191,1.1457,1.2627
				C50.7522,108.018,51.4269,107.5309,51.5194,106.8751z"/>
			<path fill="#FFFFFF" d="M47.2554,106.6084c0.0871-0.6558-0.4368-1.2436-1.1701-1.2953c-0.7239-0.0571-1.392,0.4354-1.4858,1.1021
				c-0.0844,0.6586,0.4408,1.2382,1.1673,1.2817C46.4934,107.7568,47.1574,107.267,47.2554,106.6084z"/>
			<path fill="#FFFFFF" d="M40.3734,106.0805c-0.0734,0.6721,0.449,1.2599,1.162,1.3144c0.728,0.0543,1.3866-0.4382,1.4723-1.1076
				c0.0843-0.6639-0.4354-1.2626-1.1539-1.3279C41.1164,104.9049,40.4687,105.403,40.3734,106.0805z"/>
			<path fill="#FFFFFF" d="M81.0908,103.5689c0.106-0.5035-0.1225-0.9715-0.5919-1.1565c-0.1606-0.0626-0.3402-0.0871-0.5293-0.0844
				c-0.7294,0.0354-1.4449,0.6096-1.5933,1.2762c-0.102,0.5198,0.117,0.977,0.5878,1.1728c0.1701,0.0599,0.351,0.0844,0.5482,0.0681
				C80.239,104.8043,80.9465,104.2491,81.0908,103.5689z"/>
			<path fill="#FFFFFF" d="M74.6185,103.7757c-0.0993,0.4626,0.1102,0.8734,0.5306,1.0476
				c0.1456,0.0573,0.3306,0.0871,0.4993,0.0653c0.694-0.0163,1.3552-0.5524,1.4926-1.1728
				c0.0939-0.4571-0.1211-0.8653-0.5429-1.0422c-0.1442-0.0571-0.3075-0.0871-0.4761-0.0816
				C75.4197,102.6056,74.7476,103.1362,74.6185,103.7757z"/>
			<path fill="#FFFFFF" d="M70.6469,103.8654c-0.1333,0.6286,0.3347,1.1211,1.0259,1.1076c0.6884-0.0137,1.351-0.5253,1.4775-1.1511
				c0.1279-0.6232-0.3347-1.1266-1.0313-1.1129C71.4251,102.709,70.7637,103.226,70.6469,103.8654z"/>
			<path fill="#FFFFFF" d="M66.5092,103.8137c-0.1183,0.6477,0.3688,1.1837,1.0791,1.2056c0.7198,0.0189,1.385-0.5035,1.5047-1.1429
				c0.1253-0.6369-0.3455-1.1702-1.0707-1.1865C67.3065,102.6682,66.6304,103.1743,66.5092,103.8137z"/>
			<path fill="#FFFFFF" d="M63.818,102.5321c-0.728-0.038-1.4055,0.4653-1.5143,1.1185c-0.1156,0.6502,0.3783,1.2,1.0966,1.2217
				c0.7238,0.0326,1.4096-0.4599,1.5292-1.1075C65.0439,103.1199,64.5514,102.562,63.818,102.5321z"/>
			<path fill="#FFFFFF" d="M58.0259,103.4356c-0.109,0.6558,0.3972,1.2163,1.1266,1.2571c0.7401,0.0354,1.4231-0.4626,1.532-1.1103
				c0.1129-0.6584-0.3891-1.2245-1.1294-1.268C58.8205,102.279,58.1361,102.777,58.0259,103.4356z"/>
			<path fill="#FFFFFF" d="M56.3958,103.3403c0.1062-0.6532-0.3946-1.2354-1.1415-1.2762
				c-0.7415-0.0545-1.4232,0.4463-1.5171,1.1075c-0.1115,0.6667,0.4082,1.2382,1.1308,1.2871
				C55.6149,104.4995,56.2802,104.007,56.3958,103.3403z"/>
			<path fill="#FFFFFF" d="M49.4241,102.8641c-0.0992,0.6721,0.4219,1.2545,1.1648,1.309c0.7238,0.0489,1.4136-0.4382,1.5103-1.1049
				c0.0925-0.6749-0.411-1.2627-1.1593-1.3144C50.2024,101.6967,49.518,102.1946,49.4241,102.8641z"/>
			<path fill="#FFFFFF" d="M46.2866,103.8519c0.7401,0.0599,1.4136-0.4408,1.5049-1.1129c0.0925-0.6777-0.4205-1.279-1.1674-1.347
				c-0.7388-0.0545-1.4109,0.4463-1.4994,1.1238C45.0376,103.1933,45.5546,103.7974,46.2866,103.8519z"/>
			<path fill="#FFFFFF" d="M81.8609,100.1047c0.1034-0.5197-0.1333-1.0041-0.6232-1.2c-0.1551-0.0571-0.3264-0.0789-0.5006-0.0899
				c-0.7374,0.0191-1.4559,0.5878-1.6002,1.2736c-0.1088,0.5307,0.1388,1.0123,0.6232,1.2054
				c0.1605,0.0599,0.3238,0.0953,0.5143,0.0899C81.0064,101.3538,81.703,100.8013,81.8609,100.1047z"/>
			<path fill="#FFFFFF" d="M77.3137,99.0652c-0.1414-0.0571-0.287-0.0762-0.4489-0.0762c-0.7048-0.0054-1.3729,0.5225-1.5076,1.1728
				c-0.1088,0.4953,0.1307,0.9198,0.5742,1.0912c0.1416,0.0627,0.2912,0.0899,0.4627,0.079
				c0.6898-0.0028,1.3659-0.5388,1.5021-1.1756C77.9886,99.6748,77.7764,99.2476,77.3137,99.0652z"/>
			<path fill="#FFFFFF" d="M72.8482,98.9836c-0.7021-0.0081-1.3646,0.5062-1.5061,1.1648
				c-0.1102,0.6449,0.3578,1.1674,1.0518,1.1701c0.6993-0.0054,1.3633-0.5197,1.4912-1.1537
				C74.013,99.5279,73.5544,99,72.8482,98.9836z"/>
			<path fill="#FFFFFF" d="M68.7257,98.8775c-0.7266-0.0219-1.4151,0.4897-1.5322,1.1483
				c-0.1088,0.6695,0.3728,1.2191,1.0899,1.2354c0.717,0.0245,1.3919-0.4843,1.5115-1.1429
				C69.9148,99.4598,69.4521,98.9019,68.7257,98.8775z"/>
			<path fill="#FFFFFF" d="M62.958,99.8272c-0.1116,0.6695,0.3865,1.2408,1.1198,1.2654c0.7306,0.0408,1.4137-0.4708,1.5239-1.1347
				c0.1225-0.6558-0.3811-1.2245-1.1103-1.2627C63.7731,98.6489,63.0833,99.1632,62.958,99.8272z"/>
			<path fill="#FFFFFF" d="M60.2069,98.4422c-0.7443-0.0463-1.4367,0.4626-1.5361,1.1347
				c-0.1198,0.6749,0.3837,1.2545,1.1266,1.3007c0.7361,0.0436,1.4285-0.4708,1.5429-1.1375
				C61.4574,99.068,60.9538,98.4911,60.2069,98.4422z"/>
			<path fill="#FFFFFF" d="M55.8707,98.1319c-0.7402-0.0463-1.4313,0.4571-1.5402,1.1429c-0.1116,0.6777,0.4151,1.2736,1.1539,1.328
				c0.7564,0.0435,1.4313-0.4599,1.5429-1.1294C57.1469,98.785,56.6272,98.1972,55.8707,98.1319z"/>
			<path fill="#FFFFFF" d="M52.6978,99.1388c0.0979-0.6777-0.4219-1.2844-1.162-1.3524c-0.7511-0.0627-1.4341,0.4489-1.5348,1.1292
				c-0.0979,0.6912,0.4068,1.2925,1.1538,1.3552C51.9059,100.3306,52.5849,99.8272,52.6978,99.1388z"/>
			<path fill="#FFFFFF" d="M82.5493,96.5319c0.1007-0.5579-0.1796-1.0777-0.6858-1.2736c-0.1551-0.0571-0.3047-0.0952-0.4626-0.0871
				c-0.7429-0.0109-1.4355,0.577-1.5646,1.2953c-0.0925,0.5687,0.1877,1.0885,0.7021,1.2817
				c0.1374,0.0626,0.3007,0.0925,0.4708,0.0953C81.7521,97.8272,82.4268,97.2584,82.5493,96.5319z"/>
			<path fill="#FFFFFF" d="M76.7001,97.6068c0.1319,0.0517,0.2749,0.0871,0.4314,0.0816c0.7007,0.0081,1.3551-0.5335,1.4721-1.1919
				c0.0843-0.517-0.1659-0.9906-0.6341-1.1783c-0.1279-0.049-0.283-0.0736-0.4272-0.0816
				c-0.7035-0.0054-1.3633,0.5225-1.4926,1.2028C75.9721,96.951,76.2185,97.4244,76.7001,97.6068z"/>
			<path fill="#FFFFFF" d="M73.1122,97.5714c0.7021,0.0189,1.3579-0.5035,1.483-1.1648c0.1062-0.6558-0.3618-1.2217-1.0612-1.2463
				c-0.6966-0.0245-1.3687,0.4979-1.4858,1.162C71.9339,96.989,72.4156,97.5551,73.1122,97.5714z"/>
			<path fill="#FFFFFF" d="M68.9705,97.4326c0.7266,0.0244,1.3987-0.4953,1.5212-1.1702c0.1212-0.6667-0.3592-1.2436-1.0789-1.2817
				c-0.7252-0.0408-1.4068,0.4817-1.5226,1.1592C67.7624,96.8231,68.259,97.3999,68.9705,97.4326z"/>
			<path fill="#FFFFFF" d="M77.375,93.8242c0.1333,0.049,0.2625,0.079,0.4123,0.0844c0.6802,0.0217,1.3442-0.5116,1.4558-1.1865
				c0.0871-0.5333-0.1728-1.0259-0.6532-1.2191c-0.1306-0.0435-0.2585-0.0734-0.3918-0.0843
				c-0.698-0.0273-1.3715,0.5115-1.4803,1.1946C76.6334,93.1412,76.8892,93.6365,77.375,93.8242z"/>
			<path fill="#FFFFFF" d="M73.7762,93.7154c0.7101,0.0245,1.3565-0.4925,1.4803-1.1592c0.1006-0.6722-0.3511-1.2491-1.0491-1.2899
				c-0.6993-0.0382-1.351,0.4789-1.4735,1.1592C72.6115,93.1031,73.0905,93.68,73.7762,93.7154z"/>
			<path fill="#FFFFFF" d="M69.6671,93.4976c0.7239,0.0436,1.3824-0.4762,1.5131-1.1646c0.1183-0.683-0.366-1.2762-1.0777-1.3279
				c-0.7278-0.0517-1.4176,0.468-1.5184,1.1565C68.4508,92.8583,68.9379,93.4514,69.6671,93.4976z"/>
			<path fill="#FFFFFF" d="M78.0431,90.0282c0.1142,0.0571,0.2476,0.0816,0.3836,0.0844c0.7103,0.0463,1.3878-0.4981,1.4994-1.2056
				c0.0899-0.5768-0.1905-1.1021-0.7184-1.3088c-0.1007-0.049-0.2409-0.0736-0.362-0.079
				c-0.7184-0.0517-1.4027,0.4925-1.5224,1.2082C77.2212,89.3044,77.5096,89.8295,78.0431,90.0282z"/>
			<path fill="#FFFFFF" d="M74.4538,89.7914c0.6898,0.0463,1.3484-0.4762,1.4626-1.1511c0.1142-0.6803-0.3497-1.2708-1.049-1.3253
				c-0.6803-0.0543-1.3498,0.4627-1.4586,1.1511C73.2946,89.1519,73.7652,89.7478,74.4538,89.7914z"/>
			<path fill="#FFFFFF" d="M70.3583,89.4975c0.7157,0.0599,1.4001-0.4626,1.5022-1.151c0.1156-0.6912-0.362-1.3035-1.0845-1.3715
				c-0.7224-0.0708-1.4055,0.4491-1.5238,1.1483C69.1366,88.8254,69.6291,89.4403,70.3583,89.4975z"/>
			<path fill="#FFFFFF" d="M61.7892,88.7356c0.732,0.068,1.4286-0.449,1.5539-1.1702c0.106-0.7156-0.3974-1.3605-1.1483-1.4449
				c-0.7457-0.0816-1.4477,0.4463-1.562,1.1702C60.5212,88.0145,61.0328,88.6649,61.7892,88.7356z"/>
			<path fill="#FFFFFF" d="M57.4122,88.2948c0.7539,0.0789,1.4546-0.449,1.5716-1.1783c0.102-0.7294-0.4028-1.3906-1.1565-1.4749
				c-0.7537-0.0899-1.4572,0.4435-1.5702,1.1809C56.1414,87.5519,56.6544,88.2158,57.4122,88.2948z"/>
			<path fill="#FFFFFF" d="M44.3056,86.7709c0.7348,0.0979,1.4286-0.4354,1.5402-1.1891c0.1088-0.7511-0.4028-1.4477-1.1416-1.5483
				c-0.7469-0.0979-1.4436,0.4408-1.5469,1.2028C43.0511,85.9926,43.5546,86.6757,44.3056,86.7709z"/>
			<path fill="#FFFFFF" d="M35.8046,85.6225c0.7101,0.0979,1.3796-0.4245,1.4858-1.1865c0.106-0.7646-0.4001-1.4775-1.1103-1.5783
				c-0.7157-0.0979-1.3797,0.4408-1.4872,1.2056C34.5896,84.8252,35.0916,85.5192,35.8046,85.6225z"/>
			<path fill="#FFFFFF" d="M75.1232,85.8158c0.6856,0.0626,1.3306-0.4408,1.4395-1.1239c0.1048-0.6884-0.3538-1.2925-1.0395-1.3687
				c-0.6831-0.068-1.3443,0.4327-1.4477,1.1238C73.9558,85.1518,74.4293,85.7587,75.1232,85.8158z"/>
			<path fill="#FFFFFF" d="M71.0264,85.4456c0.732,0.0736,1.3946-0.438,1.5008-1.1401c0.117-0.6966-0.362-1.3279-1.0749-1.4041
				c-0.7306-0.0844-1.4109,0.4217-1.532,1.1347C69.8018,84.7435,70.2998,85.3858,71.0264,85.4456z"/>
			<path fill="#FFFFFF" d="M66.7664,85.0184c0.7565,0.068,1.4449-0.4463,1.5511-1.1565c0.1088-0.7129-0.3974-1.3605-1.1388-1.4422
				c-0.7334-0.0925-1.4272,0.4272-1.532,1.1483C65.5227,84.2918,66.0371,84.9314,66.7664,85.0184z"/>
			<path fill="#FFFFFF" d="M62.4561,84.5396c0.7347,0.0871,1.4476-0.4436,1.5497-1.162c0.1129-0.7239-0.3933-1.3878-1.1416-1.4777
				c-0.7429-0.0843-1.4504,0.43-1.5755,1.162C61.1907,83.7967,61.7022,84.4525,62.4561,84.5396z"/>
			<path fill="#FFFFFF" d="M58.0776,84.0443c0.7483,0.0816,1.4599-0.4408,1.5701-1.1811c0.117-0.7374-0.4027-1.4041-1.1564-1.5047
				c-0.766-0.0871-1.464,0.4298-1.573,1.1727C56.8068,83.2796,57.3265,83.949,58.0776,84.0443z"/>
			<path fill="#FFFFFF" d="M44.941,82.387c0.7469,0.0979,1.4353-0.4272,1.5551-1.1972c0.102-0.7565-0.4151-1.4586-1.1538-1.562
				c-0.7485-0.1007-1.4341,0.4326-1.5565,1.2027C43.688,81.587,44.1994,82.289,44.941,82.387z"/>
			<path fill="#FFFFFF" d="M63.1119,80.308c0.7429,0.1007,1.4395-0.419,1.5578-1.1455c0.1156-0.7374-0.3972-1.4096-1.1443-1.5103
				c-0.7387-0.1116-1.4422,0.4137-1.5565,1.1429C61.8519,79.5407,62.3553,80.2183,63.1119,80.308z"/>
			<path fill="#FFFFFF" d="M58.7389,79.7475c0.7537,0.0979,1.4532-0.4217,1.5728-1.1646c0.1088-0.7457-0.4137-1.4232-1.1483-1.5294
				c-0.762-0.1062-1.4695,0.4137-1.5919,1.1592C57.464,78.9583,57.9823,79.6522,58.7389,79.7475z"/>
			<path fill="#FFFFFF" d="M54.7727,76.4385c-0.7632-0.0979-1.4735,0.4245-1.5905,1.1811c-0.117,0.751,0.4054,1.4504,1.1606,1.5538
				c0.7469,0.0953,1.4681-0.4327,1.5714-1.1811C56.0366,77.2413,55.5142,76.5473,54.7727,76.4385z"/>
			<path fill="#FFFFFF" d="M53.8542,73.2248c-0.117,0.7646,0.4,1.4639,1.1551,1.5783c0.7525,0.106,1.46-0.4082,1.5797-1.1702
				c0.1048-0.7538-0.404-1.4613-1.162-1.5701C54.683,71.9458,53.9767,72.4601,53.8542,73.2248z"/>
			<path fill="#FFFFFF" d="M43.8402,71.7391c0.1253-0.8219-0.3143-1.6247-1.0639-1.9213c-0.1144-0.0407-0.2395-0.0706-0.3606-0.0979
				c-0.4463-0.0652-0.9021,0.0545-1.2818,0.3429c-0.3524,0.2775-0.5945,0.6994-0.6639,1.162
				c-0.1211,0.8327,0.3115,1.6191,1.0598,1.9157c0.1007,0.0436,0.2313,0.0708,0.3592,0.0979
				C42.8158,73.3771,43.692,72.705,43.8402,71.7391z"/>
			<path fill="#FFFFFF" d="M39.4047,71.0642c0.1198-0.7374-0.2816-1.4695-0.9402-1.7253c-0.0871-0.0436-0.2027-0.0599-0.3061-0.0762
				c-0.3687-0.0653-0.762,0.0326-1.0735,0.2667c-0.3455,0.2477-0.5864,0.6477-0.6463,1.0885
				c-0.1143,0.7429,0.294,1.4639,0.9361,1.7225c0.0899,0.0408,0.2001,0.0653,0.3061,0.0816
				C38.5013,72.5445,39.2687,71.9376,39.4047,71.0642z"/>
			<path fill="#FFFFFF" d="M35.0726,70.4029c0.1197-0.7756-0.3429-1.4912-1.0137-1.5974c-0.687-0.1034-1.3156,0.4435-1.4409,1.2245
				c-0.1251,0.7783,0.3294,1.4912,1.0055,1.5946C34.3052,71.7254,34.9582,71.1866,35.0726,70.4029z"/>
			<path fill="#FFFFFF" d="M29.7418,71.0151c0.653,0.1062,1.2885-0.4435,1.4055-1.2109c0.1156-0.7783-0.3266-1.4912-0.9783-1.5974
				c-0.6544-0.0979-1.2762,0.4517-1.3891,1.2273C28.6506,70.2097,29.0873,70.9145,29.7418,71.0151z"/>
			<path fill="#FFFFFF" d="M26.011,70.4273c0.6313,0.0981,1.238-0.4408,1.3551-1.2191c0.117-0.7701-0.3075-1.4693-0.9307-1.5728
				c-0.6313-0.0925-1.2137,0.4464-1.3428,1.2245C24.9796,69.6246,25.3878,70.3267,26.011,70.4273z"/>
			<path fill="#FFFFFF" d="M52.1481,66.7211c-0.1305-0.0517-0.2476-0.0816-0.3728-0.1062
				c-0.4531-0.0708-0.9116,0.0436-1.2762,0.3184c-0.3891,0.2721-0.6422,0.6885-0.7101,1.1565
				c-0.1307,0.8109,0.3278,1.6082,1.0721,1.9076c0.1197,0.0489,0.253,0.0789,0.3809,0.1006
				c0.4504,0.0708,0.9198-0.0489,1.2927-0.3238c0.3769-0.2749,0.6258-0.6858,0.683-1.1483
				C53.3536,67.8205,52.8841,67.0204,52.1481,66.7211z"/>
			<path fill="#FFFFFF" d="M48.8582,67.9402c0.1225-0.8109-0.3292-1.6245-1.0775-1.9185c-0.109-0.0517-0.2369-0.0789-0.3606-0.0952
				c-0.4504-0.0736-0.8939,0.038-1.2613,0.3075c-0.3891,0.2803-0.649,0.6993-0.7184,1.1837c-0.1279,0.8,0.321,1.6137,1.0693,1.9103
				c0.1198,0.0463,0.2463,0.0762,0.3702,0.0925C47.8159,69.5675,48.7085,68.9007,48.8582,67.9402z"/>
			<path fill="#FFFFFF" d="M42.2076,68.6586c0.1223,0.0463,0.2313,0.0816,0.3673,0.0925c0.9279,0.1442,1.8041-0.5197,1.9485-1.4858
				c0.1414-0.8217-0.3157-1.63-1.0586-1.9292c-0.1102-0.0464-0.2313-0.0708-0.3497-0.0953
				c-0.4422-0.0626-0.8776,0.0408-1.2368,0.3075c-0.3946,0.2803-0.649,0.7075-0.7278,1.1974
				C41.0238,67.5647,41.4783,68.3647,42.2076,68.6586z"/>
			<path fill="#FFFFFF" d="M38.051,67.8395c0.0992,0.0462,0.2136,0.0626,0.3087,0.0871c0.8219,0.1279,1.5893-0.4789,1.7307-1.3496
				c0.1225-0.7483-0.2721-1.4749-0.9333-1.7335c-0.0925-0.038-0.2013-0.0652-0.3129-0.0734
				c-0.8123-0.1333-1.5837,0.4762-1.7144,1.347C37.0127,66.8599,37.4019,67.581,38.051,67.8395z"/>
			<path fill="#FFFFFF" d="M34.3107,67.1183c0.6789,0.109,1.3361-0.438,1.4436-1.2054c0.1239-0.7809-0.3266-1.494-1.0055-1.5974
				c-0.6775-0.1088-1.3156,0.4354-1.4558,1.2191C33.1813,66.3102,33.6331,67.0204,34.3107,67.1183z"/>
			<path fill="#FFFFFF" d="M31.8262,65.3142c0.1225-0.7755-0.3089-1.4938-0.9633-1.5919c-0.66-0.0952-1.2736,0.4545-1.4029,1.2273
				c-0.1237,0.7728,0.3089,1.4749,0.9675,1.5783C31.0751,66.6286,31.7174,66.0816,31.8262,65.3142z"/>
			<path fill="#FFFFFF" d="M28.0505,64.74c0.1211-0.7701-0.3034-1.4749-0.9184-1.5783c-0.6259-0.0897-1.2312,0.4626-1.3524,1.2382
				c-0.1115,0.7646,0.2912,1.4695,0.9035,1.5646C27.3116,66.0625,27.9268,65.5129,28.0505,64.74z"/>
			<path fill="#FFFFFF" d="M23.1347,65.4149c0.5987,0.0979,1.1769-0.4517,1.3034-1.2191c0.1198-0.7674-0.2788-1.4667-0.8734-1.5457
				c-0.6001-0.0897-1.1688,0.4571-1.2925,1.23C22.1605,64.6421,22.5442,65.3251,23.1347,65.4149z"/>
			<path fill="#FFFFFF" d="M42.9232,64.1822c0.1062,0.0436,0.2164,0.079,0.332,0.1007c0.4477,0.068,0.8925-0.0436,1.264-0.3048
				c0.3783-0.2775,0.6355-0.6966,0.7035-1.1728c0.1416-0.83-0.3101-1.63-1.0585-1.9375c-0.1048-0.0366-0.2314-0.0708-0.3497-0.0843
				c-0.4314-0.0708-0.8722,0.0354-1.2408,0.2993c-0.3825,0.2775-0.6463,0.7021-0.7131,1.1811
				C41.7314,63.0775,42.1735,63.891,42.9232,64.1822z"/>
			<path fill="#FFFFFF" d="M40.7979,62.0951c0.1225-0.7429-0.2775-1.4695-0.9347-1.7307c-0.0938-0.0382-0.1905-0.0639-0.2952-0.0816
				c-0.8123-0.1307-1.5974,0.4734-1.7279,1.343c-0.1265,0.7415,0.2639,1.4681,0.9197,1.7265
				c0.1048,0.0382,0.196,0.0653,0.3021,0.0844C39.8851,63.5591,40.6483,62.9631,40.7979,62.0951z"/>
			<path fill="#FFFFFF" d="M36.474,61.412c0.1319-0.7701-0.3333-1.4748-1.0068-1.5783c-0.6777-0.1034-1.3335,0.4422-1.4546,1.2082
				c-0.1211,0.7756,0.3225,1.4803,1.0001,1.5837C35.6917,62.7264,36.3434,62.1862,36.474,61.412z"/>
			<path fill="#FFFFFF" d="M31.1214,62.0488c0.6532,0.0979,1.2872-0.449,1.415-1.2219c0.1253-0.7755-0.3047-1.4803-0.9633-1.5728
				c-0.6585-0.0952-1.2789,0.4517-1.3999,1.2164C30.0519,61.2434,30.471,61.9521,31.1214,62.0488z"/>
			<path fill="#FFFFFF" d="M28.7594,60.2664c0.1116-0.7646-0.3021-1.4668-0.9402-1.5539c-0.6259-0.0843-1.2286,0.4708-1.347,1.2314
				c-0.1129,0.7648,0.2763,1.4626,0.9144,1.5579C28.0165,61.5903,28.6246,61.0351,28.7594,60.2664z"/>
			<path fill="#FFFFFF" d="M25.132,59.7521c0.1142-0.7592-0.2695-1.453-0.8748-1.532c-0.5919-0.0816-1.162,0.4694-1.2776,1.23
				c-0.1253,0.7674,0.2394,1.4505,0.8326,1.5388C24.4205,61.0637,25.0124,60.5222,25.132,59.7521z"/>
			<path fill="#FFFFFF" d="M20.4598,60.5168c0.5496,0.0706,1.1238-0.4762,1.2382-1.2368c0.1169-0.7551-0.2395-1.4383-0.8042-1.5117
				c-0.5687-0.064-1.1048,0.4816-1.2314,1.2382C19.5522,59.7603,19.891,60.4406,20.4598,60.5168z"/>
			<path fill="#FFFFFF" d="M17.3195,60.0923c0.5143,0.068,1.0504-0.4871,1.1538-1.2368c0.1225-0.7497-0.219-1.4192-0.7292-1.4817
				c-0.5225-0.0571-1.0206,0.4899-1.1416,1.2436C16.4922,59.3575,16.797,60.0175,17.3195,60.0923z"/>
			<path fill="#FFFFFF" d="M49.1629,57.1642c-0.106-0.0463-0.2204-0.0762-0.3347-0.0925c-0.4517-0.0734-0.9048,0.0259-1.2708,0.2884
				c-0.3797,0.2722-0.6395,0.6803-0.7075,1.1593c-0.1361,0.8163,0.3129,1.63,1.0667,1.9266
				c0.1076,0.0394,0.2232,0.0708,0.3374,0.0939c0.4571,0.0762,0.9116-0.034,1.2844-0.2966c0.37-0.2735,0.6259-0.6872,0.7021-1.1551
				C50.3739,58.2717,49.9113,57.4663,49.1629,57.1642z"/>
			<path fill="#FFFFFF" d="M44.888,56.4322c-0.1211-0.038-0.2327-0.0734-0.3511-0.0871c-0.43-0.0775-0.8789,0.0273-1.2435,0.2844
				c-0.3837,0.2872-0.6369,0.6994-0.7239,1.1797c-0.1251,0.8163,0.3184,1.6328,1.0532,1.9266
				c0.1156,0.0436,0.2339,0.0708,0.3429,0.0925c0.4503,0.0722,0.8871-0.038,1.2557-0.2938
				c0.3851-0.2775,0.6437-0.7021,0.7117-1.1728C46.0689,57.5385,45.62,56.7288,44.888,56.4322z"/>
			<path fill="#FFFFFF" d="M39.4782,58.8813c0.106,0.0422,0.2068,0.0667,0.2993,0.0899c0.8123,0.1279,1.6002-0.4708,1.7484-1.3402
				c0.1074-0.7334-0.2789-1.4558-0.9347-1.7212c-0.0953-0.034-0.1959-0.0652-0.3021-0.0816c-0.8-0.1305-1.5837,0.4681-1.7279,1.3335
				C38.4496,57.899,38.8333,58.6283,39.4782,58.8813z"/>
			<path fill="#FFFFFF" d="M37.2019,56.9466c0.1265-0.7674-0.3198-1.4723-1.0109-1.5702c-0.6775-0.1062-1.3253,0.4382-1.4436,1.1946
				c-0.1429,0.7756,0.3061,1.4858,0.9905,1.5783C36.4114,58.2582,37.0809,57.718,37.2019,56.9466z"/>
			<path fill="#FFFFFF" d="M33.2712,56.367c0.1251-0.7716-0.3103-1.4723-0.9715-1.5674c-0.653-0.0967-1.2817,0.4517-1.415,1.2245
				c-0.1279,0.7646,0.2993,1.4585,0.9496,1.5538C32.5037,57.6758,33.1324,57.1288,33.2712,56.367z"/>
			<path fill="#FFFFFF" d="M29.4642,55.8172c0.1305-0.7646-0.2803-1.4586-0.9253-1.5347c-0.6245-0.0871-1.2273,0.4598-1.347,1.2258
				c-0.1279,0.7606,0.2721,1.4532,0.8939,1.5362C28.724,57.1316,29.3512,56.5846,29.4642,55.8172z"/>
			<path fill="#FFFFFF" d="M24.5307,56.5629c0.5905,0.0789,1.1769-0.4736,1.3034-1.2382c0.1279-0.7646-0.2695-1.4423-0.868-1.5157
				c-0.5974-0.0734-1.1742,0.479-1.2872,1.2327C23.5469,55.8064,23.9333,56.4813,24.5307,56.5629z"/>
			<path fill="#FFFFFF" d="M22.389,54.8811c0.1212-0.7455-0.249-1.419-0.8135-1.4884c-0.5524-0.0734-1.0966,0.4966-1.2164,1.2449
				c-0.1225,0.7539,0.2258,1.4164,0.7877,1.4872C21.7143,56.2009,22.2721,55.6431,22.389,54.8811z"/>
			<path fill="#FFFFFF" d="M19.1699,54.5016c0.1197-0.7538-0.2232-1.4041-0.7374-1.4626c-0.5293-0.0571-1.0341,0.5034-1.1592,1.2463
				c-0.109,0.7483,0.2068,1.4015,0.7266,1.4572C18.5223,55.8104,19.0488,55.2499,19.1699,54.5016z"/>
			<path fill="#FFFFFF" d="M50.9426,54.7083c0.1306-0.8095-0.3266-1.6231-1.0681-1.9252c-0.1184-0.0354-0.2232-0.068-0.3469-0.0857
				c-0.4382-0.0913-0.9007,0.0177-1.2627,0.2761c-0.3863,0.2775-0.6313,0.6803-0.7021,1.1457
				c-0.1482,0.8191,0.3143,1.6231,1.0695,1.9212c0.1006,0.0517,0.2176,0.0816,0.3361,0.0925
				c0.4408,0.0843,0.8993-0.0205,1.2748-0.2803C50.6188,55.5751,50.8664,55.1723,50.9426,54.7083z"/>
			<path fill="#FFFFFF" d="M46.6621,53.9478c0.1239-0.8082-0.317-1.6205-1.0667-1.9129c-0.1034-0.0422-0.2122-0.0762-0.332-0.0899
				c-0.438-0.0762-0.864,0.0245-1.2382,0.2885c-0.3863,0.2775-0.6367,0.6802-0.7264,1.1564
				c-0.1253,0.8177,0.3156,1.6219,1.0667,1.9157c0.1034,0.0436,0.2013,0.0776,0.3211,0.0939
				c0.4463,0.0776,0.8897-0.034,1.2543-0.2858C46.3275,54.8376,46.5778,54.428,46.6621,53.9478z"/>
			<path fill="#FFFFFF" d="M41.3313,51.5041c-0.0952-0.0463-0.1905-0.0666-0.2898-0.0843
				c-0.8123-0.1388-1.5878,0.4612-1.7293,1.3062c-0.136,0.7415,0.2572,1.4612,0.917,1.717c0.0899,0.038,0.1878,0.0653,0.2844,0.0871
				c0.8137,0.136,1.5974-0.4585,1.7375-1.309C42.3722,52.4756,41.9912,51.7573,41.3313,51.5041z"/>
			<path fill="#FFFFFF" d="M36.4767,53.707c0.6748,0.1048,1.3428-0.4314,1.4749-1.1933c0.1305-0.7537-0.3211-1.4544-1.0069-1.562
				c-0.6912-0.0979-1.3416,0.4341-1.464,1.1988C35.3582,52.9137,35.7828,53.6131,36.4767,53.707z"/>
			<path fill="#FFFFFF" d="M34.0032,51.9355c0.1251-0.7646-0.3075-1.4546-0.9633-1.5497c-0.6667-0.0925-1.2927,0.4517-1.4178,1.2095
				c-0.1251,0.7579,0.2938,1.4518,0.9484,1.5525C33.2358,53.2322,33.8779,52.6961,34.0032,51.9355z"/>
			<path fill="#FFFFFF" d="M28.8165,52.6185c0.6369,0.0871,1.2464-0.4557,1.377-1.2205c0.1279-0.7537-0.2749-1.4395-0.9116-1.5266
				c-0.6408-0.0816-1.2449,0.4708-1.3701,1.2273C27.7812,51.8498,28.1934,52.541,28.8165,52.6185z"/>
			<path fill="#FFFFFF" d="M26.5566,50.9218c0.1251-0.7483-0.2654-1.4285-0.8722-1.4966c-0.6055-0.0748-1.1674,0.4762-1.3035,1.2328
				c-0.1237,0.7537,0.2586,1.4246,0.849,1.4994C25.8313,52.2361,26.426,51.6837,26.5566,50.9218z"/>
			<path fill="#FFFFFF" d="M21.8571,51.7519c0.5538,0.068,1.1294-0.4899,1.2477-1.241c0.1293-0.7551-0.2504-1.4204-0.8272-1.4762
				c-0.5443-0.0667-1.0994,0.4938-1.2137,1.2503C20.9305,51.0334,21.2843,51.6892,21.8571,51.7519z"/>
			<path fill="#FFFFFF" d="M19.8556,50.1585c0.1251-0.7443-0.2123-1.3919-0.7348-1.4423c-0.5211-0.0543-1.0367,0.5184-1.1551,1.2587
				c-0.1115,0.7387,0.1973,1.385,0.7225,1.4367C19.2121,51.4607,19.7372,50.9109,19.8556,50.1585z"/>
			<path fill="#FFFFFF" d="M15.7656,51.1477c0.475,0.0366,0.9715-0.5253,1.0926-1.2654c0.1156-0.7457-0.185-1.3689-0.6681-1.4097
				c-0.4708-0.0408-0.9496,0.5333-1.0721,1.2681C15.0038,50.4755,15.2922,51.1041,15.7656,51.1477z"/>
			<path fill="#FFFFFF" d="M13.1207,50.9436c0.4231,0.03,0.8817-0.5402,1.0015-1.2695c0.1115-0.732-0.1592-1.3496-0.5878-1.3701
				c-0.43-0.0217-0.8681,0.5566-0.9742,1.2764C12.4526,50.315,12.6935,50.9191,13.1207,50.9436z"/>
			<path fill="#FFFFFF" d="M11.1764,48.2169c-0.3905,0-0.7714,0.5729-0.8722,1.2913c-0.1116,0.7115,0.0844,1.2967,0.4694,1.309
				c0.3769,0.0163,0.7825-0.5579,0.9076-1.2709C11.7751,48.8292,11.5464,48.2305,11.1764,48.2169z"/>
			<path fill="#FFFFFF" d="M48.2758,49.7708c-0.1442,0.8137,0.3225,1.6123,1.0654,1.9129c0.1102,0.0436,0.2108,0.0736,0.3306,0.0871
				c0.4543,0.0885,0.9007-0.0109,1.2734-0.283c0.3837-0.2612,0.6178-0.6532,0.6966-1.1103
				c0.1361-0.8109-0.3101-1.6205-1.0803-1.9157c-0.0992-0.038-0.2027-0.0734-0.3115-0.0952
				c-0.4422-0.0844-0.8993,0.0135-1.2722,0.2721C48.6078,48.9026,48.3452,49.3068,48.2758,49.7708z"/>
			<path fill="#FFFFFF" d="M47.3833,49.6021c0.1361-0.8054-0.3048-1.6191-1.0532-1.9103c-0.1088-0.0408-0.2204-0.0722-0.3278-0.0925
				c-0.4314-0.0802-0.8816,0.0231-1.2436,0.2735c-0.3905,0.2761-0.6381,0.6844-0.7211,1.1469
				c-0.1333,0.8137,0.3035,1.6123,1.0572,1.9131c0.1034,0.038,0.215,0.0706,0.3266,0.0871c0.4326,0.0761,0.879-0.03,1.2571-0.2858
				C47.0581,50.4646,47.3044,50.0646,47.3833,49.6021z"/>
			<path fill="#FFFFFF" d="M42.0824,47.1421c-0.0911-0.0368-0.1891-0.0653-0.2884-0.0804c-0.7988-0.1388-1.5797,0.4422-1.717,1.2941
				c-0.1389,0.7224,0.2476,1.4367,0.8952,1.698c0.0899,0.0354,0.1932,0.0653,0.2803,0.0816
				c0.8259,0.1279,1.5946-0.4463,1.7444-1.2899C43.1219,48.1231,42.741,47.3992,42.0824,47.1421z"/>
			<path fill="#FFFFFF" d="M38.7189,48.1352c0.1253-0.751-0.3292-1.4436-1.0082-1.5429c-0.6898-0.1074-1.3374,0.4151-1.4817,1.1702
				c-0.1333,0.7537,0.3103,1.4422,1.0041,1.5483C37.9108,49.4129,38.5815,48.8918,38.7189,48.1352z"/>
			<path fill="#FFFFFF" d="M32.3595,47.2156c-0.1279,0.7469,0.2993,1.4313,0.9633,1.5266c0.6504,0.0953,1.3021-0.4436,1.4369-1.1946
				c0.1346-0.7606-0.3131-1.4395-0.9689-1.5348C33.1296,45.9189,32.4957,46.4576,32.3595,47.2156z"/>
			<path fill="#FFFFFF" d="M28.6451,46.7189c-0.1279,0.7551,0.2693,1.4341,0.9034,1.5062c0.6423,0.0843,1.2654-0.4613,1.396-1.2068
				c0.1305-0.7524-0.2966-1.43-0.9307-1.5143C29.3852,45.4237,28.7757,45.9639,28.6451,46.7189z"/>
			<path fill="#FFFFFF" d="M27.2941,46.5515c0.1102-0.7455-0.2844-1.4122-0.8844-1.4816c-0.5973-0.0736-1.1797,0.4829-1.3021,1.2286
				c-0.1319,0.7524,0.2421,1.4096,0.8545,1.4803C26.5647,47.8523,27.1594,47.3081,27.2941,46.5515z"/>
			<path fill="#FFFFFF" d="M23.8096,46.1638c0.1333-0.7443-0.2367-1.4109-0.7974-1.4612c-0.5769-0.0585-1.1225,0.4993-1.2408,1.2531
				c-0.1293,0.7401,0.2204,1.3824,0.7891,1.4504C23.1265,47.4631,23.6911,46.9095,23.8096,46.1638z"/>
			<path fill="#FFFFFF" d="M18.6556,45.6849c-0.117,0.7306,0.1959,1.3687,0.7347,1.4122c0.5142,0.045,1.0435-0.5142,1.1701-1.2517
				c0.1212-0.7469-0.2176-1.3864-0.7483-1.43C19.2787,44.3774,18.7725,44.9407,18.6556,45.6849z"/>
			<path fill="#FFFFFF" d="M15.7887,45.4931c-0.1048,0.7264,0.1783,1.347,0.6491,1.3768c0.4789,0.0382,0.9782-0.5306,1.1047-1.2734
				c0.1144-0.728-0.185-1.3552-0.6721-1.3852C16.3943,44.1815,15.9154,44.7528,15.7887,45.4931z"/>
			<path fill="#FFFFFF" d="M14.7806,45.444c0.117-0.7292-0.1605-1.3333-0.5769-1.3442c-0.4421-0.0137-0.8708,0.5633-0.9905,1.2871
				c-0.1184,0.7198,0.1333,1.3211,0.5756,1.3347C14.2201,46.7476,14.6799,46.1652,14.7806,45.444z"/>
			<path fill="#FFFFFF" d="M11.8145,44.0671c-0.3823,0.0054-0.7674,0.5933-0.879,1.3062c-0.1074,0.7117,0.0939,1.2872,0.4681,1.2939
				c0.3837,0.0014,0.8054-0.5768,0.9143-1.2897C12.424,44.6521,12.1887,44.0699,11.8145,44.0671z"/>
			<path fill="#FFFFFF" d="M48.9875,45.4766c-0.1347,0.8082,0.321,1.6082,1.0749,1.9049c0.102,0.0408,0.2162,0.0708,0.3156,0.0899
				c0.4559,0.0911,0.913-0.004,1.283-0.2695c0.37-0.2558,0.615-0.6476,0.6844-1.0966c0.1388-0.7972-0.3198-1.5919-1.0735-1.8994
				c-0.0966-0.038-0.2095-0.068-0.3129-0.0843c-0.4422-0.0953-0.8899,0-1.2748,0.2598
				C49.3181,44.6372,49.0677,45.0346,48.9875,45.4766z"/>
			<path fill="#FFFFFF" d="M47.0581,43.4141c-0.0966-0.0408-0.2082-0.0694-0.317-0.0913c-0.4341-0.0748-0.879,0.0259-1.2382,0.2777
				c-0.3783,0.2571-0.6232,0.653-0.7184,1.117c-0.1361,0.7933,0.3047,1.5947,1.0449,1.8886
				c0.1048,0.0463,0.2095,0.068,0.3306,0.0953c0.4286,0.0775,0.8748-0.0205,1.2435-0.2803c0.3797-0.264,0.6272-0.66,0.7089-1.1103
				C48.2513,44.5011,47.8105,43.7079,47.0581,43.4141z"/>
			<path fill="#FFFFFF" d="M40.8387,44.0359c-0.1251,0.7224,0.2504,1.4299,0.8953,1.6803c0.0899,0.0449,0.1932,0.0694,0.2912,0.0844
				c0.8137,0.136,1.5783-0.4341,1.7279-1.2654c0.1293-0.7198-0.2476-1.426-0.9074-1.6764
				c-0.0913-0.0408-0.1783-0.0734-0.2844-0.0789C41.768,42.6384,40.9857,43.2086,40.8387,44.0359z"/>
			<path fill="#FFFFFF" d="M37.0073,43.4386c-0.1414,0.7374,0.3048,1.4285,0.9906,1.532c0.6803,0.1034,1.3605-0.4137,1.4966-1.1471
				c0.1197-0.7374-0.332-1.4245-1.0096-1.5306C37.791,42.1895,37.138,42.6943,37.0073,43.4386z"/>
			<path fill="#FFFFFF" d="M35.5189,43.2182c0.1305-0.743-0.3048-1.4123-0.9647-1.5185c-0.6735-0.0925-1.2967,0.4314-1.4423,1.1837
				c-0.1211,0.7374,0.3008,1.4096,0.9675,1.5008C34.7474,44.4807,35.3828,43.9542,35.5189,43.2182z"/>
			<path fill="#FFFFFF" d="M31.6901,42.6793c0.1416-0.7401-0.2884-1.4096-0.9251-1.4858c-0.6369-0.0857-1.2464,0.4504-1.3878,1.1974
				c-0.1156,0.7429,0.2802,1.4069,0.917,1.4872C30.9323,43.9637,31.5595,43.433,31.6901,42.6793z"/>
			<path fill="#FFFFFF" d="M28.0165,42.2276c0.1333-0.7483-0.2558-1.4013-0.8708-1.4695c-0.6095-0.068-1.1891,0.483-1.3198,1.2191
				c-0.1251,0.7457,0.2518,1.396,0.8599,1.4695C27.2845,43.5147,27.9022,42.9664,28.0165,42.2276z"/>
			<path fill="#FFFFFF" d="M22.4843,41.648c-0.1333,0.7374,0.2204,1.3824,0.7919,1.4327c0.5714,0.0639,1.1266-0.4966,1.2708-1.2394
				c0.117-0.7348-0.2504-1.3797-0.8205-1.4395C23.1415,40.3527,22.5959,40.9077,22.4843,41.648z"/>
			<path fill="#FFFFFF" d="M21.2692,41.5472c0.1211-0.7306-0.2272-1.3659-0.7524-1.4068c-0.5319-0.0327-1.0395,0.5279-1.1728,1.2734
				c-0.1088,0.7266,0.1959,1.3579,0.7292,1.3974C20.604,42.8453,21.1578,42.2847,21.2692,41.5472z"/>
			<path fill="#FFFFFF" d="M18.2311,41.3473c0.1142-0.7348-0.1919-1.3566-0.6763-1.3756c-0.4911-0.0191-0.9647,0.5633-1.0749,1.2803
				c-0.1237,0.7306,0.1647,1.3389,0.6423,1.3647C17.6079,42.6426,18.1046,42.0779,18.2311,41.3473z"/>
			<path fill="#FFFFFF" d="M15.4555,41.2262c0.1088-0.7308-0.1633-1.3239-0.6041-1.3307c-0.4408-0.0082-0.8681,0.581-0.9824,1.3062
				c-0.1116,0.7184,0.1361,1.3076,0.5715,1.3198C14.8704,42.5324,15.3384,41.9472,15.4555,41.2262z"/>
			<path fill="#FFFFFF" d="M12.9656,41.2085c0.1129-0.7266-0.1211-1.2927-0.509-1.2831c-0.3918,0.0054-0.7809,0.6096-0.8897,1.317
				c-0.109,0.7115,0.0966,1.279,0.4871,1.2734C12.4417,42.5051,12.8486,41.9229,12.9656,41.2085z"/>
			<path fill="#FFFFFF" d="M51.9793,40.1132c-0.106-0.0435-0.1999-0.068-0.3101-0.0897c-0.449-0.1007-0.9116,0-1.2736,0.253
				c-0.362,0.2423-0.5959,0.6123-0.6775,1.0395c-0.1361,0.7783,0.3101,1.562,1.0585,1.8558
				c0.0993,0.0518,0.2069,0.079,0.3117,0.0939c0.4612,0.0858,0.9184,0.0042,1.2871-0.2544c0.366-0.2558,0.5973-0.6176,0.6721-1.0409
				C53.1876,41.1935,52.7196,40.4152,51.9793,40.1132z"/>
			<path fill="#FFFFFF" d="M47.7969,39.2806c-0.109-0.0368-0.1987-0.0762-0.3048-0.0953c-0.4354-0.0816-0.8897,0.0082-1.2545,0.2586
				c-0.37,0.2504-0.6176,0.6367-0.6884,1.0667c-0.1524,0.7919,0.2912,1.562,1.0272,1.8654c0.102,0.0408,0.2055,0.0734,0.317,0.0883
				c0.4422,0.0871,0.8993-0.0095,1.2695-0.2747c0.3646-0.2423,0.6013-0.6178,0.6898-1.0572
				C48.9847,40.3567,48.5398,39.5744,47.7969,39.2806z"/>
			<path fill="#FFFFFF" d="M41.6252,39.8044c-0.1524,0.7115,0.2313,1.4068,0.8925,1.6585c0.079,0.0435,0.1742,0.068,0.2735,0.0897
				c0.8014,0.1361,1.5688-0.4135,1.7184-1.2272c0.1333-0.698-0.2381-1.3987-0.898-1.6491
				c-0.0871-0.0382-0.1742-0.0694-0.2708-0.0899C42.5423,38.4452,41.7694,38.992,41.6252,39.8044z"/>
			<path fill="#FFFFFF" d="M37.8047,39.2057c-0.1456,0.7266,0.2871,1.3919,0.9782,1.4952c0.6899,0.1088,1.3498-0.3891,1.4926-1.1212
				c0.1361-0.7101-0.3033-1.3878-0.9877-1.483C38.5992,37.9893,37.9408,38.4927,37.8047,39.2057z"/>
			<path fill="#FFFFFF" d="M36.3257,38.9866c0.1374-0.7101-0.2735-1.3633-0.9361-1.4585c-0.664-0.0925-1.3102,0.4163-1.4504,1.132
				c-0.1592,0.7184,0.2462,1.3673,0.917,1.4612C35.5066,40.2167,36.1856,39.7105,36.3257,38.9866z"/>
			<path fill="#FFFFFF" d="M30.2125,38.1785c-0.1606,0.7129,0.2204,1.3524,0.849,1.4313c0.6394,0.0802,1.2911-0.4245,1.4422-1.1375
				c0.147-0.7238-0.2476-1.351-0.8776-1.4367C30.9908,36.954,30.3567,37.4682,30.2125,38.1785z"/>
			<path fill="#FFFFFF" d="M26.6478,37.7825c-0.1565,0.7089,0.2041,1.3347,0.8054,1.4027c0.6069,0.0639,1.2328-0.4545,1.3878-1.1701
				c0.1551-0.7075-0.2232-1.3335-0.8327-1.3933C27.4015,36.5538,26.792,37.0763,26.6478,37.7825z"/>
			<path fill="#FFFFFF" d="M23.2694,37.4682c-0.1456,0.7048,0.1836,1.317,0.7524,1.3661c0.5783,0.0489,1.1702-0.4762,1.3253-1.1811
				c0.151-0.7021-0.1932-1.3279-0.766-1.3715C24.0027,36.2314,23.4313,36.7662,23.2694,37.4682z"/>
			<path fill="#FFFFFF" d="M22.0543,37.3729c0.1524-0.7075-0.1742-1.3143-0.6993-1.3551c-0.5443-0.03-1.0845,0.5143-1.2233,1.2191
				c-0.1605,0.7075,0.1375,1.3034,0.6789,1.3388C21.3414,38.6139,21.9115,38.0778,22.0543,37.3729z"/>
			<path fill="#FFFFFF" d="M17.2188,37.0927c-0.1333,0.7129,0.1307,1.2966,0.6218,1.317c0.4776,0.0217,1.0082-0.5253,1.1579-1.2341
				c0.1482-0.7129-0.1579-1.302-0.6504-1.3184C17.8528,35.8328,17.3495,36.3907,17.2188,37.0927z"/>
			<path fill="#FFFFFF" d="M14.5547,37.0573c-0.1184,0.7075,0.1251,1.2899,0.5633,1.2871c0.4436,0.0054,0.9279-0.5715,1.064-1.2681
				c0.1319-0.7101-0.1279-1.2952-0.596-1.298C15.1371,35.7661,14.6826,36.3498,14.5547,37.0573z"/>
			<path fill="#FFFFFF" d="M13.6323,37.0682c0.1211-0.7157-0.1225-1.2762-0.517-1.2708c-0.4014,0.0081-0.8028,0.6027-0.9062,1.3116
				c-0.1142,0.7157,0.0899,1.2844,0.4925,1.2654C13.0798,38.3581,13.5138,37.7785,13.6323,37.0682z"/>
			<path fill="#FFFFFF" d="M43.5736,37.4057c0.8,0.1468,1.5511-0.37,1.717-1.1674c0.1552-0.7919-0.3836-1.5702-1.1646-1.7253
				c-0.3755-0.0734-0.7701,0-1.0912,0.2204c-0.3238,0.219-0.547,0.5551-0.619,0.9456c-0.1429,0.7007,0.2381,1.3892,0.8939,1.645
				C43.3913,37.3594,43.4742,37.3866,43.5736,37.4057z"/>
			<path fill="#FFFFFF" d="M40.1055,33.9959c-0.6681-0.1062-1.3321,0.3905-1.4736,1.0912
				c-0.1442,0.7021,0.2872,1.3552,0.9634,1.4532c0.683,0.1034,1.3442-0.3919,1.4884-1.098
				C41.213,34.7374,40.7816,34.0967,40.1055,33.9959z"/>
			<path fill="#FFFFFF" d="M34.7869,34.5578c-0.1388,0.698,0.2612,1.3402,0.9197,1.4328c0.6612,0.0911,1.3239-0.4082,1.4586-1.1117
				c0.147-0.7007-0.2639-1.3456-0.9279-1.43C35.5951,33.3619,34.9393,33.86,34.7869,34.5578z"/>
			<path fill="#FFFFFF" d="M31.0779,34.1007c-0.1484,0.7035,0.2367,1.3293,0.8654,1.4055c0.6395,0.0789,1.2789-0.4272,1.4367-1.1266
				c0.147-0.6994-0.253-1.3265-0.8722-1.4082C31.8697,32.9034,31.2316,33.4001,31.0779,34.1007z"/>
			<path fill="#FFFFFF" d="M27.5376,33.7102c-0.1606,0.7021,0.2082,1.3158,0.8068,1.3824c0.6108,0.0639,1.2258-0.4517,1.3836-1.1415
				c0.1442-0.6952-0.2176-1.3267-0.8258-1.3892C28.2982,32.5007,27.6899,33.0163,27.5376,33.7102z"/>
			<path fill="#FFFFFF" d="M26.2369,33.5851c0.1551-0.694-0.1932-1.2981-0.7756-1.3524c-0.5742-0.0571-1.1483,0.4694-1.298,1.1674
				c-0.1538,0.7007,0.1687,1.3034,0.7483,1.3496C25.4776,34.8068,26.0763,34.2844,26.2369,33.5851z"/>
			<path fill="#FFFFFF" d="M20.9836,33.1633c-0.1538,0.7047,0.1577,1.2966,0.6884,1.3306c0.5456,0.0436,1.1171-0.4952,1.2531-1.1891
				c0.1524-0.6966-0.1701-1.3007-0.7075-1.3361C21.6734,31.932,21.1291,32.4694,20.9836,33.1633z"/>
			<path fill="#FFFFFF" d="M18.0039,33.0163c-0.1319,0.7007,0.1428,1.2899,0.6504,1.3034c0.5034,0.0245,1.0367-0.5129,1.1823-1.2245
				c0.1388-0.6912-0.1659-1.2817-0.6667-1.3116C18.6597,31.7619,18.1521,32.3157,18.0039,33.0163z"/>
			<path fill="#FFFFFF" d="M15.3031,32.9484c-0.136,0.7061,0.117,1.2897,0.5633,1.2993c0.4626,0.004,0.947-0.551,1.0926-1.2681
				c0.1428-0.698-0.151-1.2844-0.6082-1.2993C15.8989,31.6748,15.4201,32.2489,15.3031,32.9484z"/>
			<path fill="#FFFFFF" d="M46.0662,32.2381c0.1442-0.7565-0.3457-1.5252-1.1388-1.6953c-0.404-0.0844-0.7891-0.0137-1.1061,0.2013
				c-0.3157,0.2069-0.5443,0.5321-0.6178,0.9116c-0.1388,0.6926,0.2286,1.377,0.9048,1.6355
				c0.0722,0.0326,0.1592,0.0584,0.2381,0.0706c0.3865,0.083,0.7783,0,1.1129-0.215
				C45.7778,32.9347,45.9846,32.6136,46.0662,32.2381z"/>
			<path fill="#FFFFFF" d="M39.4619,31.0598c-0.1416,0.6898,0.283,1.3253,0.9579,1.4123c0.6612,0.106,1.3225-0.3756,1.4693-1.0614
				c0.1333-0.6898-0.2993-1.3251-0.9633-1.415C40.2619,29.9019,39.6184,30.37,39.4619,31.0598z"/>
			<path fill="#FFFFFF" d="M35.6603,30.551c-0.1442,0.6748,0.2612,1.3034,0.8993,1.3933c0.6558,0.0897,1.313-0.4001,1.4572-1.0872
				c0.147-0.6803-0.2612-1.3076-0.9074-1.3973C36.4494,29.3768,35.8101,29.861,35.6603,30.551z"/>
			<path fill="#FFFFFF" d="M31.9853,30.0883c-0.1591,0.6885,0.2272,1.3035,0.8477,1.3824c0.6381,0.079,1.2573-0.4217,1.4206-1.1061
				c0.1551-0.6817-0.2395-1.2953-0.8627-1.3756C32.7555,28.9128,32.1283,29.4134,31.9853,30.0883z"/>
			<path fill="#FFFFFF" d="M29.8003,28.5808c-0.6109-0.064-1.2137,0.4314-1.3675,1.1212c-0.1523,0.6884,0.2055,1.2953,0.8056,1.3605
				c0.6013,0.0653,1.2245-0.4408,1.385-1.1266C30.7867,29.2502,30.4084,28.6474,29.8003,28.5808z"/>
			<path fill="#FFFFFF" d="M25.045,29.3808c-0.151,0.6898,0.1728,1.2899,0.7646,1.3333c0.5633,0.0653,1.1702-0.4571,1.317-1.1387
				c0.1552-0.6885-0.185-1.2967-0.7728-1.3484C25.777,28.1767,25.1986,28.695,25.045,29.3808z"/>
			<path fill="#FFFFFF" d="M21.8339,29.1359c-0.147,0.6858,0.1687,1.279,0.7103,1.3225c0.5388,0.0382,1.1129-0.4883,1.2599-1.1809
				c0.1579-0.6912-0.1769-1.2871-0.7157-1.3293C22.536,27.9073,21.9836,28.442,21.8339,29.1359z"/>
			<path fill="#FFFFFF" d="M18.823,28.9617c-0.1375,0.694,0.1551,1.279,0.6626,1.3062c0.4952,0.0273,1.0339-0.5142,1.1837-1.2082
				c0.1414-0.6912-0.1647-1.2817-0.6803-1.3116C19.4856,27.7127,18.9549,28.2596,18.823,28.9617z"/>
			<path fill="#FFFFFF" d="M17.1045,27.6121c-0.4736-0.0217-0.9579,0.5416-1.0763,1.2491
				c-0.1293,0.7047,0.1429,1.2817,0.6027,1.2953c0.479,0.0149,0.9756-0.5457,1.1103-1.241
				C17.8691,28.2162,17.5888,27.6338,17.1045,27.6121z"/>
			<path fill="#FFFFFF" d="M40.3054,27.1439c-0.1442,0.6695,0.2775,1.2818,0.9416,1.3824c0.6544,0.0899,1.3144-0.3687,1.4586-1.0381
				c0.1428-0.6653-0.2898-1.2722-0.947-1.3742C41.1028,26.0229,40.4578,26.48,40.3054,27.1439z"/>
			<path fill="#FFFFFF" d="M36.5365,26.6297c-0.1577,0.6653,0.2504,1.279,0.8953,1.3633c0.6395,0.0885,1.2899-0.3809,1.4369-1.0504
				c0.1551-0.6707-0.2558-1.2736-0.8981-1.3633C37.323,25.4991,36.6835,25.9562,36.5365,26.6297z"/>
			<path fill="#FFFFFF" d="M34.2767,25.099c-0.6218-0.079-1.2531,0.4014-1.4096,1.0693c-0.151,0.6763,0.2271,1.2722,0.8585,1.3512
				c0.6313,0.0762,1.2666-0.4054,1.3987-1.0709C35.293,25.7792,34.8985,25.1779,34.2767,25.099z"/>
			<path fill="#FFFFFF" d="M29.3335,25.7589c-0.1524,0.6775,0.2015,1.2708,0.8028,1.3416c0.6109,0.0748,1.2328-0.4217,1.381-1.0994
				c0.1619-0.6667-0.2164-1.2654-0.8231-1.3306C30.0982,24.5997,29.4832,25.0922,29.3335,25.7589z"/>
			<path fill="#FFFFFF" d="M25.9266,25.4214c-0.1442,0.6775,0.1892,1.2736,0.7674,1.3225c0.5836,0.0559,1.1837-0.4408,1.3361-1.1143
				c0.1605-0.6816-0.1932-1.2776-0.7837-1.3293C26.6695,24.2405,26.0899,24.7411,25.9266,25.4214z"/>
			<path fill="#FFFFFF" d="M22.6925,25.1425c-0.1388,0.6844,0.1633,1.2695,0.7171,1.3198c0.5414,0.0422,1.1184-0.4776,1.2803-1.1551
				c0.1496-0.6775-0.181-1.2736-0.7306-1.3253C23.3987,23.9411,22.838,24.4609,22.6925,25.1425z"/>
			<path fill="#FFFFFF" d="M20.8244,23.7398c-0.5307-0.0354-1.0558,0.4953-1.1988,1.1919c-0.14,0.6911,0.1647,1.2734,0.6817,1.3034
				c0.517,0.0326,1.0612-0.4979,1.1946-1.1756C21.6461,24.3656,21.3441,23.7764,20.8244,23.7398z"/>
			<path fill="#FFFFFF" d="M44.8172,23.9697c-0.1579,0.6695,0.2286,1.3402,0.8816,1.6068c0.0844,0.0164,0.1579,0.0408,0.2136,0.0667
				c0.3905,0.0885,0.7974,0.0258,1.1225-0.1891c0.2993-0.1892,0.5021-0.4818,0.5796-0.8191c0.147-0.7225-0.3374-1.464-1.1212-1.6504
				c-0.3904-0.0979-0.7823-0.0368-1.0966,0.1633C45.0893,23.337,44.8825,23.6255,44.8172,23.9697z"/>
			<path fill="#FFFFFF" d="M42.5885,22.3683c-0.6504-0.0925-1.2899,0.332-1.4369,0.9878c-0.1469,0.6367,0.2612,1.2463,0.9307,1.3388
				c0.6449,0.1021,1.2871-0.351,1.4355-0.9932C43.6689,23.0623,43.2443,22.469,42.5885,22.3683z"/>
			<path fill="#FFFFFF" d="M38.8333,21.809c-0.6381-0.0883-1.2736,0.3606-1.4206,1.0041c-0.1551,0.6546,0.2477,1.2478,0.8818,1.343
				c0.653,0.0844,1.2843-0.3714,1.4422-1.0164C39.8782,22.4962,39.4728,21.9084,38.8333,21.809z"/>
			<path fill="#FFFFFF" d="M33.7651,22.3329c-0.1565,0.6586,0.2245,1.2463,0.8394,1.3253c0.63,0.0843,1.2667-0.3809,1.415-1.0313
				c0.1593-0.6477-0.2313-1.245-0.8543-1.328C34.5502,21.2145,33.9201,21.6771,33.7651,22.3329z"/>
			<path fill="#FFFFFF" d="M30.2371,21.8948c-0.1661,0.6667,0.1877,1.264,0.8,1.3251c0.6095,0.0708,1.2191-0.4,1.385-1.0598
				c0.1551-0.6598-0.2176-1.2408-0.8191-1.3211C30.9908,20.7655,30.3881,21.239,30.2371,21.8948z"/>
			<path fill="#FFFFFF" d="M26.8287,21.5124c-0.1592,0.6777,0.1836,1.2641,0.7551,1.3294c0.585,0.0571,1.1946-0.4354,1.3416-1.0994
				c0.1605-0.6558-0.2041-1.2436-0.7783-1.309C27.5688,20.36,26.9756,20.8485,26.8287,21.5124z"/>
			<path fill="#FFFFFF" d="M24.8328,20.0743c-0.5689-0.0571-1.1388,0.4463-1.2844,1.1212c-0.1496,0.6775,0.17,1.2654,0.732,1.3144
				c0.5524,0.0517,1.1401-0.4517,1.2843-1.1266C25.7225,20.7166,25.3864,20.1314,24.8328,20.0743z"/>
			<path fill="#FFFFFF" d="M47.2853,19.4199c-0.3865-0.102-0.8-0.049-1.1129,0.1524c-0.2871,0.1728-0.4953,0.4543-0.5687,0.7728
				c-0.1321,0.6339,0.2421,1.3129,0.9034,1.5755c0.0653,0.0272,0.1305,0.0394,0.1932,0.0613
				c0.3958,0.0952,0.7986,0.038,1.1252-0.1661c0.287-0.1742,0.4748-0.4489,0.551-0.7755
				C48.5289,20.3546,48.0405,19.6172,47.2853,19.4199z"/>
			<path fill="#FFFFFF" d="M41.9912,19.6906c-0.1429,0.6178,0.2653,1.2028,0.9102,1.3007c0.6449,0.113,1.2967-0.3129,1.4341-0.9306
				c0.1305-0.6123-0.283-1.1919-0.9116-1.3021C42.7736,18.6593,42.1423,19.0729,41.9912,19.6906z"/>
			<path fill="#FFFFFF" d="M38.2917,19.1273c-0.1496,0.6232,0.2286,1.211,0.8653,1.3076c0.6367,0.0939,1.2844-0.3443,1.4355-0.9673
				c0.1402-0.615-0.2598-1.2001-0.8913-1.2953C39.0672,18.0769,38.4359,18.4988,38.2917,19.1273z"/>
			<path fill="#FFFFFF" d="M34.663,18.5939c-0.1524,0.6381,0.2204,1.2245,0.8396,1.317c0.6122,0.0871,1.2517-0.3592,1.4013-0.9905
				c0.1496-0.6341-0.2231-1.2163-0.8463-1.3034C35.4399,17.5218,34.8181,17.9667,34.663,18.5939z"/>
			<path fill="#FFFFFF" d="M31.135,18.1177c-0.1605,0.6423,0.1973,1.2287,0.8054,1.3144c0.5987,0.0789,1.2273-0.3932,1.3756-1.015
				c0.151-0.6477-0.2082-1.2259-0.8137-1.3104C31.897,17.0157,31.286,17.4728,31.135,18.1177z"/>
			<path fill="#FFFFFF" d="M29.0343,16.6388c-0.5824-0.0776-1.1674,0.3851-1.3253,1.0435
				c-0.1524,0.6586,0.1905,1.2436,0.7714,1.3225c0.5864,0.0573,1.1905-0.4135,1.3498-1.0585
				C29.9879,17.3,29.6247,16.715,29.0343,16.6388z"/>
			<path fill="#FFFFFF" d="M50.0678,17.8905c-0.1484,0.6966,0.2952,1.4437,1.0571,1.7416c0.0531,0.0205,0.1307,0.0368,0.1932,0.0585
				c0.4477,0.1253,0.9144,0.0681,1.2722-0.1551c0.317-0.1932,0.5347-0.4789,0.6001-0.8205
				c0.1687-0.7673-0.3742-1.5497-1.2382-1.7891c-0.4517-0.1253-0.9088-0.083-1.2736,0.1414
				C50.3685,17.2524,50.1507,17.5409,50.0678,17.8905z"/>
			<path fill="#FFFFFF" d="M46.4009,16.8769c-0.1333,0.6178,0.2586,1.2817,0.9116,1.5483c0.0476,0.0219,0.1116,0.0436,0.1633,0.0531
				c0.4,0.1048,0.8151,0.0585,1.1429-0.1456c0.2626-0.1659,0.4571-0.4217,0.5307-0.7238c0.1414-0.6586-0.328-1.3742-1.0817-1.5811
				c-0.3877-0.1116-0.7986-0.0652-1.1225,0.1333C46.6676,16.3218,46.4799,16.5722,46.4009,16.8769z"/>
			<path fill="#FFFFFF" d="M44.2567,15.3149c-0.6423-0.1142-1.2764,0.2695-1.4123,0.8599
				c-0.1538,0.5932,0.2449,1.1728,0.8708,1.2762c0.6612,0.1076,1.2953-0.283,1.4313-0.8708
				C45.2852,15.9952,44.8852,15.4306,44.2567,15.3149z"/>
			<path fill="#FFFFFF" d="M39.153,15.5571c-0.1375,0.6015,0.2394,1.1811,0.872,1.2804c0.6341,0.1102,1.2722-0.3075,1.4029-0.8981
				c0.1673-0.5973-0.2327-1.166-0.8571-1.2748C39.9326,14.5584,39.3176,14.9571,39.153,15.5571z"/>
			<path fill="#FFFFFF" d="M35.5597,14.9761c-0.1498,0.6109,0.2068,1.196,0.8272,1.2885c0.6204,0.0953,1.2477-0.3238,1.4015-0.9279
				c0.1496-0.6095-0.2218-1.1823-0.8382-1.2885C36.342,13.9434,35.7162,14.3571,35.5597,14.9761z"/>
			<path fill="#FFFFFF" d="M33.4059,13.4659c-0.6055-0.0953-1.2178,0.3333-1.3701,0.9591
				c-0.1619,0.6314,0.1987,1.2205,0.8109,1.3021c0.5878,0.0885,1.2123-0.3455,1.3756-0.9633
				C34.365,14.1475,34.0046,13.5679,33.4059,13.4659z"/>
			<path fill="#FFFFFF" d="M51.846,16.3436c0.0504,0.0272,0.1144,0.0489,0.181,0.0653c0.4545,0.1251,0.9211,0.0762,1.2858-0.1375
				c0.3021-0.1782,0.5034-0.4557,0.57-0.7741c0.1592-0.7185-0.3687-1.498-1.2177-1.7444c-0.4503-0.136-0.9225-0.0966-1.283,0.1211
				c-0.2924,0.1673-0.4953,0.4436-0.5714,0.7714C50.6542,15.3135,51.1005,16.0552,51.846,16.3436z"/>
			<path fill="#FFFFFF" d="M48.0908,15.0919c0.0626,0.0231,0.1197,0.0352,0.1728,0.0489c0.3988,0.117,0.7933,0.0734,1.1253-0.117
				c0.2667-0.1551,0.4463-0.3918,0.5143-0.6749c0.1579-0.6299-0.3225-1.3225-1.0612-1.5401
				c-0.3919-0.1116-0.8014-0.079-1.132,0.1088c-0.2598,0.1496-0.4436,0.3891-0.5062,0.6667
				C47.0486,14.1857,47.4404,14.8333,48.0908,15.0919z"/>
			<path fill="#FFFFFF" d="M44.5709,14.0659c0.6218,0.1116,1.2559-0.2449,1.392-0.8027c0.1428-0.5566-0.2558-1.1048-0.8899-1.2247
				c-0.6286-0.1305-1.2545,0.2204-1.3933,0.7837C43.5327,13.3869,43.9247,13.9516,44.5709,14.0659z"/>
			<path fill="#FFFFFF" d="M41.428,11.3161c-0.6178-0.1319-1.2518,0.2395-1.3973,0.8163c-0.147,0.5783,0.2353,1.1402,0.8626,1.2518
				c0.6218,0.1211,1.2517-0.26,1.3959-0.8205C42.4389,11.9814,42.0524,11.4346,41.428,11.3161z"/>
			<path fill="#FFFFFF" d="M37.8318,10.6127c-0.6096-0.1142-1.2245,0.264-1.3796,0.8599c-0.1605,0.5959,0.2082,1.1646,0.8354,1.2681
				c0.6123,0.1142,1.2382-0.2803,1.3769-0.8599C38.8128,11.2985,38.4401,10.7379,37.8318,10.6127z"/>
			<path fill="#FFFFFF" d="M52.5754,13.2522c0.0517,0.0191,0.1034,0.0327,0.1551,0.049c0.4585,0.1442,0.9197,0.1034,1.2899-0.1116
				c0.2952-0.1687,0.4816-0.4217,0.5524-0.7184c0.1551-0.6884-0.3674-1.4423-1.1893-1.7076
				c-0.4652-0.1402-0.9333-0.1074-1.2952,0.0979c-0.2912,0.1606-0.4736,0.4177-0.562,0.728
				C51.3726,12.24,51.8337,12.9502,52.5754,13.2522z"/>
			<path fill="#FFFFFF" d="M48.8881,11.9474c0.0408,0.0205,0.0925,0.03,0.1388,0.0503c0.4068,0.1144,0.8137,0.0844,1.132-0.1006
				c0.2584-0.1442,0.4203-0.362,0.4911-0.615c0.1442-0.6095-0.3143-1.2736-1.0353-1.5021
				c-0.4056-0.1239-0.8191-0.0899-1.1362,0.0925c-0.2408,0.1251-0.4177,0.3429-0.4857,0.6082
				C47.8323,11.0535,48.2323,11.6862,48.8881,11.9474z"/>
			<path fill="#FFFFFF" d="M45.3859,10.8508c0.6204,0.1347,1.2463-0.1919,1.377-0.7157c0.1414-0.5129-0.2476-1.0504-0.8736-1.1918
				c-0.6176-0.1429-1.2354,0.1645-1.3824,0.6952C44.3601,10.1747,44.756,10.7215,45.3859,10.8508z"/>
			<path fill="#FFFFFF" d="M338.4291,73.7037h-15.1299V58.8595c0-0.1088-0.0136-0.2136-0.0163-0.3211V8.7406
				c0-4.6859-3.9621-8.6481-8.6561-8.6481h-0.9225c-3.1756,0-6.0928,1.6328-7.9949,4.4764l-47.2156,69.5267L211.2565,4.5472
				c-2.3755-3.064-4.9362-4.4546-7.9813-4.4546h-0.4708c0,0-10.4249-0.0925-13.0155-0.0925c-4.7511,0-8.4683,3.7198-8.4683,8.4657
				v97.8515L101.0263,4.4193c-2.2123-2.8436-4.773-4.2315-7.8208-4.2315h-1.4723c-4.694,0-8.6561,3.9593-8.6561,8.6453v83.2918
				c-0.1197-0.2667-0.3238-0.4857-0.6068-0.6001c-0.1456-0.0489-0.2884-0.0789-0.4327-0.0897
				c-0.7455-0.0191-1.4381,0.5524-1.5728,1.298c-0.0925,0.577,0.1878,1.1129,0.7239,1.3198
				c0.1305,0.0517,0.2912,0.0789,0.4463,0.0816c0.6286,0.0163,1.2163-0.4354,1.4422-1.0246v6.158
				c-0.1632,0.2029-0.2966,0.4245-0.3483,0.6735c-0.106,0.464,0.0368,0.8927,0.3483,1.1674v0.9974
				c-0.5469,0.2325-0.9987,0.7129-1.1129,1.264c-0.136,0.5822,0.1361,1.1157,0.6654,1.3253
				c0.136,0.0543,0.2924,0.0584,0.4475,0.0652v0.5838c-0.0626-0.0014-0.1143-0.0286-0.1796-0.0231
				c-0.7837,0.0571-1.5292,0.6858-1.6939,1.415c-0.1211,0.5659,0.1239,1.0912,0.6463,1.2925
				c0.2013,0.0736,0.4109,0.1034,0.6504,0.079c0.1987-0.0177,0.3918-0.0748,0.5768-0.1579v0.9197
				c-0.0843-0.068-0.1768-0.1305-0.2856-0.1714c-0.1852-0.0789-0.4096-0.1062-0.6612-0.0789
				c-0.7783,0.0761-1.5185,0.6912-1.6858,1.4041c-0.1347,0.5551,0.1305,1.0612,0.6245,1.2626
				c0.2015,0.079,0.4314,0.1062,0.6722,0.0736c0.5197-0.0559,1.0068-0.3634,1.336-0.7648v4.524
				c-0.2367,0.2313-0.4217,0.4993-0.4925,0.7878c-0.117,0.4816,0.079,0.9062,0.4925,1.1131v0.6667
				c-0.5999,0.2272-1.1101,0.7129-1.2326,1.2435c-0.1333,0.509,0.1006,0.9552,0.5645,1.1485
				c0.2001,0.0748,0.4287,0.0993,0.6681,0.0706v0.3797c-0.1006-0.0054-0.2013-0.0068-0.3101,0.0095
				c-0.7728,0.1035-1.4966,0.6994-1.6573,1.3335c-0.117,0.5034,0.0939,0.9416,0.5687,1.1292
				c0.2095,0.0816,0.4627,0.1144,0.7294,0.0816c0.2327-0.034,0.4571-0.1225,0.6693-0.2341v0.8396
				c-0.0871-0.0734-0.1891-0.1347-0.3075-0.1782c-0.2108-0.0816-0.4571-0.1144-0.7238-0.0816
				c-0.7755,0.1088-1.5049,0.6775-1.6736,1.3088c-0.1225,0.4817,0.0979,0.917,0.5715,1.0966
				c0.2176,0.0953,0.4653,0.117,0.7388,0.0816c0.5579-0.068,1.0816-0.3864,1.3945-0.7918v1.0068
				c-0.2476,1.2028-0.6639,2.3143-1.268,3.2859c-0.1062-0.1565-0.2586-0.2898-0.4626-0.3687
				c-0.2123-0.0844-0.4599-0.117-0.7266-0.0871c-0.7811,0.0789-1.5225,0.5987-1.6818,1.1946
				c-0.1333,0.4545,0.1062,0.8899,0.5797,1.0749c0.1742,0.0734,0.3809,0.1006,0.5999,0.0939
				c-0.5239,0.4026-1.1198,0.7429-1.8001,1.0027c-1.4884,0.5687-3.1103,0.8394-4.758,0.9891
				c0.0286-0.0489,0.072-0.0952,0.0885-0.1454c0.0938-0.3402-0.0816-0.6559-0.4518-0.8028c-0.1877-0.079-0.419-0.1116-0.6775-0.0844
				c-0.7238,0.0462-1.3987,0.449-1.5375,0.9198c-0.0259,0.0939-0.0272,0.1836-0.0137,0.2681
				c-0.4245,0.0163-0.8463,0.0312-1.2654,0.0435c0.0354-0.0517,0.0803-0.0993,0.0979-0.1537
				c0.079-0.2586-0.0652-0.4899-0.3592-0.6123c-0.1796-0.0708-0.3946-0.1006-0.6313-0.0871c-0.6667,0.0462-1.2953,0.4054-1.4001,0.8
				c-0.0109,0.0354-0.0095,0.0681-0.0123,0.1007c-0.0231-0.0014-0.0462-0.0014-0.0706-0.0028
				c-0.4233-0.0149-0.8518-0.0217-1.2818-0.0286c0.0816-0.3618-0.3333-0.615-0.9591-0.5728
				c-0.5225,0.03-0.9987,0.2612-1.2327,0.5333c-1.0626-0.0272-2.1212-0.0789-3.1553-0.2231
				c-1.9483-0.2735-3.8967-0.5443-5.8423-0.8178c0.2558-0.1388,0.4422-0.325,0.4816-0.5374c0.0925-0.4-0.362-0.7238-1.015-0.7021
				c-0.6722,0.0245-1.2736,0.3837-1.3335,0.7783l0.0014,0.0054c-1.932-0.4857-3.8423-1.0082-5.7377-1.5878
				c0.4545-0.1293,0.8014-0.4205,0.8545-0.7634c0.0599-0.4571-0.4231-0.8272-1.0938-0.8109
				c-0.6749,0.0026-1.2762,0.3972-1.328,0.8545c-0.0121,0.0897,0.0137,0.1686,0.0408,0.249
				c-0.951-0.3117-1.8993-0.6395-2.8436-0.9946c-7.8614-2.9498-15.1502-8.0329-21.1192-13.8726
				C12.59,106.0942,6.4347,94.7686,3.6183,82.2864C0.1868,67.0885,2.742,51.3219,9.7437,37.5145
				c3.7267-7.35,9.1622-13.757,15.3027-19.1898c5.5036-4.8301,11.7488-8.3297,18.383-11.3338
				c-4.8165,2.0245-9.4479,4.2397-13.7938,7.1676c-5.1594,3.4777-9.6683,7.6657-13.7747,12.3217
				C7.719,35.7144,2.108,48.2265,0.6059,60.4352c-1.5648,12.7352-0.2041,25.9602,5.3172,37.6668
				c2.8817,6.1091,6.335,11.7855,10.8208,16.8823c5.3784,6.1091,11.9189,11.7447,19.2429,15.3994
				c3.8111,1.9021,7.7188,3.8967,11.8441,5.0423c4.1852,1.162,8.3036,2.0354,12.6059,2.6206
				c3.7226,0.5169,8.4685,0.4109,10.7379,0.3918c0.7592-0.0068,17.4169-0.0014,20.3641,0h0.004h0.0028c0.2816,0,0.4435,0,0.4435,0
				s-0.0312-0.0123-0.0503-0.0191c4.558-0.2013,8.0724-3.8315,8.0724-8.4466V29.7155l81.9572,103.9335
				c1.132,1.415,3.7416,4.6914,7.8206,4.6914h12.3353c0.0135,0,0.0326,0.0054,0.0489,0.0054c0.0137,0,0.0354-0.0054,0.0491-0.0054
				h0.5468c0.1796,0,0.3402-0.079,0.5116-0.1034c4.1989-0.5333,7.35-3.9893,7.35-8.3569V33.8763l40.4452,58.8513
				c2.2232,3.3552,5.1594,4.0682,7.2275,4.0682c2.996,0,5.4424-1.3824,7.2657-4.1062l40.4098-58.8106v39.8248h-15.1217
				c-4.7295,0-8.5801,3.8397-8.5801,8.5582c0,4.724,3.8506,8.5663,8.5801,8.5663h15.1217v38.8669
				c0,4.6914,3.962,8.6507,8.6479,8.6507c4.694,0,8.6561-3.9594,8.6561-8.6507v-23.6921c0.0027-0.1088,0.0163-0.2136,0.0163-0.3224
				V90.8282h15.1299c4.724,0,8.5717-3.8423,8.5717-8.5663C347.0008,77.5434,343.1531,73.7037,338.4291,73.7037z M193.7075,124.5574
				h-0.0217v9.9352h-3.8968c-1.853,0-3.3279-1.3797-4.8002-3.2273l-86.4089-109.58c-0.0326-0.0368-0.0545-0.079-0.0885-0.1116
				c-0.2504-0.2409-0.5864-0.3919-0.9619-0.3919c-0.7225,0-1.2981,0.5566-1.3661,1.2613c-0.0054,0.0449-0.0272,0.0844-0.0272,0.1319
				c0,0.0463,0.0217,0.0844,0.0272,0.1307v107.2669c0,2.5852-2.0354,4.618-4.6206,4.618s-4.6178-2.0328-4.6178-4.618V8.8331
				c0-2.5852,2.2232-4.8002,4.8083-4.8002h1.4723c2.0354,0,3.5075,1.1075,4.8002,2.7701l84.534,107.2779
				c0.0844,0.1742,0.2041,0.3197,0.3483,0.4435c0.2449,0.2069,0.5496,0.3457,0.8925,0.3457c0.7593,0,1.3689-0.6055,1.3878-1.3593
				c0-0.0123,0.0054-0.0217,0.0054-0.034s-0.0054-0.0217-0.0054-0.034V8.4657c0-2.5852,2.0355-4.6179,4.6206-4.6179
				c0.7648,0,2.2286,0.0082,3.8968,0.0219v5.0478h0.0217V124.5574z M338.4291,87.1355h-18.828v18.545
				c0,2.7348-2.2232,4.9635-4.9607,4.9635c-2.7348,0-4.958-2.2286-4.958-4.9635v-18.545h-18.8252
				c-2.694,0-4.8846-2.1878-4.8846-4.8736c0-2.6831,2.1906-4.8655,4.8846-4.8655h18.8252V58.8595
				c0-2.7402,2.2232-4.9715,4.958-4.9715c2.7375,0,4.9607,2.2313,4.9607,4.9715v18.5368h18.828
				c2.6912,0,4.8764,2.1824,4.8764,4.8655C343.3055,84.9477,341.1203,87.1355,338.4291,87.1355z"/>
		</g>
	</g>
</g>
</svg>
